<svg xmlns="http://www.w3.org/2000/svg" viewBox="0 0 100 100"><defs><style>.cls-1{fill:#539ed0;}</style></defs><title>0001</title><g id="Layer_2" data-name="Layer 2"><path class="cls-1" d="M66.2,33.31a24.55,24.55,0,0,0-18.51-6.68c-12.59.76-23.25,12.24-23.25,25.13V52a6.51,6.51,0,0,0,13,0,2.27,2.27,0,0,1,.67-1.89,2.28,2.28,0,0,1,3.72,2.48v.17h0a3.25,3.25,0,0,1-2,2.17,7.48,7.48,0,0,0-4.57,6.91A14.29,14.29,0,0,0,49.22,76.12h.35A24.77,24.77,0,0,0,66.2,33.31ZM49.39,72.61a10.79,10.79,0,0,1-10.6-10.78,4,4,0,0,1,2.46-3.69,6.7,6.7,0,0,0,4-4.51v-.18h0A5.74,5.74,0,1,0,33.93,52a3,3,0,1,1-6,0v-.23c0-11.07,9.14-21,20-21.67h0a21.26,21.26,0,1,1,1.52,42.47Z"/><path class="cls-1" d="M53.79,37.47a5.45,5.45,0,1,0-5.45,5.44,5.46,5.46,0,0,0,5.45-5.44Zm-7.38,0a1.93,1.93,0,1,1,3.71.73,1.93,1.93,0,0,1-3.71-.73Z"/><path class="cls-1" d="M59.94,48.53a5.44,5.44,0,1,0-5.45-5.44,5.43,5.43,0,0,0,5.45,5.44Zm0-7.38h0a1.93,1.93,0,1,1-.74,3.71,1.93,1.93,0,0,1,.74-3.71Z"/><path class="cls-1" d="M62,50.29a5.45,5.45,0,1,0,5.39,5.45A5.47,5.47,0,0,0,62,50.29Zm0,7.38a1.93,1.93,0,1,1,1.87-1.93A1.94,1.94,0,0,1,62,57.67Z"/><path class="cls-1" d="M52.91,59.43a5.45,5.45,0,1,0,5.45,5.45,5.45,5.45,0,0,0-5.45-5.45Zm0,7.38h0a1.93,1.93,0,1,1,1.93-1.93,1.89,1.89,0,0,1-.57,1.36,1.93,1.93,0,0,1-1.36.57Z"/></g></svg>