<svg xmlns="http://www.w3.org/2000/svg" viewBox="0 0 100 100"><defs><style>.cls-1{fill:none;stroke:#539ed0;stroke-linecap:round;stroke-linejoin:round;stroke-width:2.5px;}</style></defs><title>0002</title><g id="Layer_2" data-name="Layer 2"><path class="cls-1" d="M20.58,45.61V70.78"/><path class="cls-1" d="M16.29,32.78v8.58"/><path class="cls-1" d="M20.58,32.78v8.58"/><path class="cls-1" d="M24.88,32.78v8.58"/><path class="cls-1" d="M24.88,41.36a4.3,4.3,0,0,1-8.59,0"/><path class="cls-1" d="M67.91,51.45A19.34,19.34,0,1,1,48.57,32.11,19.34,19.34,0,0,1,67.91,51.45"/><path class="cls-1" d="M60,51.45a11.4,11.4,0,1,1-11.4-11.39A11.4,11.4,0,0,1,60,51.45"/><path class="cls-1" d="M79.85,32.11V70.78H75l1.13-17.05s-4-.15-2.81-4.57,1.68-15.55,6.49-17Z"/></g></svg>