<svg xmlns="http://www.w3.org/2000/svg" viewBox="0 0 100 100"><defs><style>.cls-1{fill:#539ed0;}</style></defs><title>0003</title><g id="Layer_2" data-name="Layer 2"><path class="cls-1" d="M44.85,33.65a5.06,5.06,0,1,1-5.05-5.06,5,5,0,0,1,5.05,5.06"/><path class="cls-1" d="M45.91,61.3a6.58,6.58,0,0,1-3.24-5.69,6.65,6.65,0,0,1,5.74-6.55v-.25a8.57,8.57,0,0,0-8.55-8.55A8.34,8.34,0,0,0,33.68,43a6.6,6.6,0,0,1,.19,11.48A10.17,10.17,0,0,1,40.61,64V65.6c0-.06.06-.06.06-.12a10.57,10.57,0,0,1,5.24-4.18Z"/><path class="cls-1" d="M63.7,33.65a5.06,5.06,0,1,1-5.05-5.06,5,5,0,0,1,5.05,5.06"/><path class="cls-1" d="M64.64,54.43A6.6,6.6,0,0,1,64.82,43,8.51,8.51,0,0,0,50.1,48.81V49a6.6,6.6,0,0,1,2.56,12.23,9.88,9.88,0,0,1,5.18,4.18V63.92a10.09,10.09,0,0,1,6.8-9.49Z"/><path class="cls-1" d="M54.34,55.61a5.06,5.06,0,1,1-5.06-5,5.05,5.05,0,0,1,5.06,5"/><path class="cls-1" d="M49.29,62.29a8.56,8.56,0,0,0-8.55,8.55v2.69a17.07,17.07,0,0,0,8.55,1.93,17.71,17.71,0,0,0,8.54-1.93V70.84A8.56,8.56,0,0,0,49.29,62.29Z"/><path class="cls-1" d="M35.49,48.75a5.06,5.06,0,1,1-5.05-5,5.06,5.06,0,0,1,5.05,5"/><path class="cls-1" d="M30.44,55.43A8.56,8.56,0,0,0,21.89,64v2.68a17,17,0,0,0,8.55,1.94A17.6,17.6,0,0,0,39,66.66V64A8.47,8.47,0,0,0,30.44,55.43Z"/><path class="cls-1" d="M73.06,48.75a5.06,5.06,0,1,1-5-5,5.06,5.06,0,0,1,5,5"/><path class="cls-1" d="M68,55.43A8.56,8.56,0,0,0,59.46,64v2.68A17,17,0,0,0,68,68.6a17.64,17.64,0,0,0,8.55-1.94V64A8.56,8.56,0,0,0,68,55.43Z"/></g></svg>