<svg xmlns="http://www.w3.org/2000/svg" viewBox="0 0 100 100"><defs><style>.cls-1{fill:#539ed0;}</style></defs><title>0004</title><g id="Layer_2" data-name="Layer 2"><path class="cls-1" d="M31.62,29.91a20.63,20.63,0,0,0-5.71.75,1.23,1.23,0,0,0-.68.46,1.28,1.28,0,0,0-.26.78l0,4-2.27-1a1.32,1.32,0,0,0-.62-.11,1.23,1.23,0,0,0-.59.21,1.19,1.19,0,0,0-.43.46,1.31,1.31,0,0,0-.15.61l0,32.59a1.23,1.23,0,0,0,.1.49,1.39,1.39,0,0,0,.27.41,1.31,1.31,0,0,0,.91.38H74.62a1.31,1.31,0,0,0,.91-.38,1.39,1.39,0,0,0,.27-.41,1.23,1.23,0,0,0,.1-.49l0-32.59a1.32,1.32,0,0,0-.16-.61A1.42,1.42,0,0,0,75.3,35a1.31,1.31,0,0,0-.6-.21,1.28,1.28,0,0,0-.61.11l-2.27,1,0-4a1.28,1.28,0,0,0-.26-.78,1.23,1.23,0,0,0-.68-.46c-9-2.44-15.69,1.63-22.51,4.17-5.29-2-10.5-4.86-16.78-4.92Zm-.31,2.56c5.61,0,10.35,2.55,15.82,4.62V66.37c-4.44-2.45-10-4.7-19.39-3.46l-.21-30a18.73,18.73,0,0,1,3.78-.43Zm34.2,0a18,18,0,0,1,3.78.42l-.21,30c-9.4-1.23-14.94,1-19.39,3.46V37.08C55.16,35,59.9,32.43,65.51,32.47ZM73.32,38l0,29.36H53.26c3.94-1.87,8.74-3,16.88-1.72a1.28,1.28,0,0,0,.55,0,1.32,1.32,0,0,0,.48-.26,1.27,1.27,0,0,0,.45-1l.19-25.72ZM23.5,38l1.51.66.18,25.72a1.25,1.25,0,0,0,.12.54,1.37,1.37,0,0,0,.33.43,1.29,1.29,0,0,0,.49.26,1.23,1.23,0,0,0,.54,0c8.15-1.33,12.95-.15,16.89,1.72H23.48Z"/></g></svg>