<svg xmlns="http://www.w3.org/2000/svg" viewBox="0 0 100 100"><defs><style>.cls-1{fill:#539ed0;}</style></defs><title>0005</title><g id="Layer_2" data-name="Layer 2"><path class="cls-1" d="M64,60.62h-.16L61.66,44.76a.94.94,0,0,0-.42-.67,1,1,0,0,0-.78-.15l-.6.15a2.76,2.76,0,0,0-1.38-1.27L45.62,37.45l-.15-.06L45,37.2a2.16,2.16,0,0,0-.66-.18c-.21-.05-.42-.09-.64-.12a6.54,6.54,0,0,0-7.33,5.66l-1.13,8.78a6.55,6.55,0,0,0,5.66,7.33l.28,0,10.7,1.86,4.41,4.87A8.54,8.54,0,1,0,64,60.62Zm-9.89-6.26-5.9-1,.06-.32,1-8.08L52,46.08a1,1,0,0,0-.35,1,1,1,0,0,0,1.19.72L55,47.3l1.4.59a2.86,2.86,0,0,0,1.06.21,2.76,2.76,0,0,0,2.5-1.61l.79,5.85a24.39,24.39,0,0,0-3.7.33,1,1,0,0,0,.15,1.95h.16a22.15,22.15,0,0,1,3.49-.31H61l.89,6.58c-.25.06-.5.14-.74.22l-5.2-5.72a3.2,3.2,0,0,0-1.85-1Zm9.89,21a6.18,6.18,0,0,1-6.18-6.18,5.94,5.94,0,0,1,.27-1.8l2.07,2.27a3.19,3.19,0,0,0,2.39,1.07,3.24,3.24,0,0,0,2.4-5.42l-.57-.62L64.13,63A6.18,6.18,0,0,1,64,75.34Z"/><path class="cls-1" d="M37.17,66.14a1,1,0,1,0-1.46-1.31c-.43.49-.87,1-1.3,1.52a6,6,0,0,0-8.64,5.36A6,6,0,1,0,36,67.5c.39-.47.78-.93,1.17-1.36Zm-1,5.57a4.42,4.42,0,1,1-4.42-4.42,4.35,4.35,0,0,1,1.66.33c-.85,1.11-1.68,2.29-2.48,3.56a1,1,0,0,0,.3,1.35.91.91,0,0,0,.52.16,1,1,0,0,0,.83-.46c.79-1.25,1.61-2.41,2.44-3.48a4.39,4.39,0,0,1,1.15,3Z"/><path class="cls-1" d="M46.05,36.12a7.2,7.2,0,1,0-3.75-9.47,7.2,7.2,0,0,0,3.75,9.47Z"/><path class="cls-1" d="M43.76,60.11H35.05a1.83,1.83,0,1,0,0,3.66h8.71a1.83,1.83,0,0,0,0-3.66Z"/></g></svg>