<svg xmlns="http://www.w3.org/2000/svg" viewBox="0 0 100 100"><defs><style>.cls-1{fill:#539ed0;}</style></defs><title>0006</title><g id="Layer_2" data-name="Layer 2"><path class="cls-1" d="M55.94,29.25a8.72,8.72,0,0,1-17.44,0,8.54,8.54,0,0,1,8.65-8.55,8.66,8.66,0,0,1,8.79,8.55"/><path class="cls-1" d="M38.58,38.71H55.87V56.25H38.58Z"/><path class="cls-1" d="M43,48.4,25.6,39.48l3.79-5.72,17.43,8.92Z"/><path class="cls-1" d="M23.87,37.42a3.92,3.92,0,0,0,4.58,2.46,3.4,3.4,0,0,0,2.81-4,3.92,3.92,0,0,0-4.58-2.47,3.33,3.33,0,0,0-2.81,4"/><path class="cls-1" d="M47.45,42.72,64.89,33.8l3.79,5.73L51.24,48.44Z"/><path class="cls-1" d="M70.42,37.42a3.92,3.92,0,0,1-4.58,2.46,3.41,3.41,0,0,1-2.81-4,3.93,3.93,0,0,1,4.59-2.47,3.43,3.43,0,0,1,2.8,4"/><path class="cls-1" d="M59.05,76.71l-7.54,1.17L48.85,64.63l6.87-4.87Z"/><path class="cls-1" d="M59.05,76.71a3.55,3.55,0,0,1-3.11,4.16,4,4,0,0,1-4.51-3.05,3.53,3.53,0,0,1,3.11-4.16,4,4,0,0,1,4.51,3"/><path class="cls-1" d="M35.25,76.71l7.61,1.17,2.66-13.25-6.87-4.87Z"/><path class="cls-1" d="M35.25,76.71a3.53,3.53,0,0,0,3.1,4.16,4,4,0,0,0,4.51-3.05,3.53,3.53,0,0,0-3.1-4.16,4.11,4.11,0,0,0-4.51,3"/></g></svg>