<svg xmlns="http://www.w3.org/2000/svg" viewBox="0 0 100 100"><defs><style>.cls-1{fill:#539ed0;}</style></defs><title>0007</title><g id="Layer_2" data-name="Layer 2"><path class="cls-1" d="M29.47,40.24a4.91,4.91,0,1,0-4.91-4.91A4.92,4.92,0,0,0,29.47,40.24Zm9.88,16.37H33.58V51L35,52.36a1.43,1.43,0,0,0,.5.36,1.74,1.74,0,0,0,2.1-.08,1.41,1.41,0,0,0,.36-.28l.28-.29.22-.22,3.53-3.53a1.74,1.74,0,0,0-2.45-2.46L37.26,48.1l-4.91-4.9a4.31,4.31,0,0,0-3.24-1.37,4.58,4.58,0,0,0-4.55,4.54V59.86a3.31,3.31,0,0,0,3.32,3.32h9.88v7.35a2.45,2.45,0,1,0,4.9,0V59.93a1.16,1.16,0,0,0-.08-.51,3.37,3.37,0,0,0-3.24-2.81ZM22.54,46.37H20.88V66.85H35.24V65.19H22.54Zm47.25-6.28A4.83,4.83,0,1,0,65,35.26,4.78,4.78,0,0,0,69.79,40.09ZM74.62,59.5V45.87a4.42,4.42,0,0,0-4.4-4.4h-.14a4.41,4.41,0,0,0-4.4,4.4V56.18H59.83a3.29,3.29,0,0,0-3.24,3.32V70.18a2.64,2.64,0,0,0,1.87,2.52,2.48,2.48,0,0,0,3-2.45V62.81H71.3a3.35,3.35,0,0,0,3.32-3.31Zm2-13.56V65.19H63.94v1.66H78.3V45.94Zm-12.7,8.65v-10c-.79,0-1.65,1.3-1.65,2v6.27H58.68a5.48,5.48,0,0,0-5.48,5.49v8.36c0,1,1.15,1.52,1.66,1.52v-10a3.7,3.7,0,0,1,3.68-3.68Zm1.09-12A4.55,4.55,0,0,1,66.4,41a4.5,4.5,0,0,1-2.82-3.39,4.21,4.21,0,0,1,0-1.87,3.66,3.66,0,0,0-1.94,3.89A3.76,3.76,0,0,0,65,42.55Z"/></g></svg>