<svg xmlns="http://www.w3.org/2000/svg" viewBox="0 0 100 100"><defs><style>.cls-1{fill:#539ed0;}</style></defs><title>0008</title><g id="Layer_2" data-name="Layer 2"><path class="cls-1" d="M48.15,52.78a12.58,12.58,0,0,0-12.6,12.6v6.71a1.68,1.68,0,0,0,1.68,1.68H59.07a1.68,1.68,0,0,0,1.68-1.68V65.38a12.58,12.58,0,0,0-12.6-12.6Zm9.91,10.91a10,10,0,0,0-19.82,0H37.4a10.88,10.88,0,0,1,21.5,0Z"/><path class="cls-1" d="M37.57,36.48,37.23,33a.82.82,0,0,1,1.52-.34L40.51,35l1.26-.5-2.69-3.36a2.74,2.74,0,0,0-2.6-1L32.61,31a1.62,1.62,0,0,0-1.25,1.6l.42,9.24a20.84,20.84,0,0,1,5.79-5.38Z"/><path class="cls-1" d="M55.8,35l1.76-2.27a.81.81,0,0,1,1.51.34l-.33,3.44a22.17,22.17,0,0,1,5.79,5.38L65,32.62A1.62,1.62,0,0,0,63.69,31l-3.86-.92a2.56,2.56,0,0,0-2.61,1l-2.68,3.36,1.26.5Z"/><path class="cls-1" d="M52.18,35.56l-.5-4.2a3.38,3.38,0,0,0-3.36-3h-.5a3.37,3.37,0,0,0-3.36,3L44,35.56A18.5,18.5,0,0,0,29.68,53.62v21a4.16,4.16,0,0,0,4.2,4.2H62.43a4.16,4.16,0,0,0,4.2-4.2v-21A18.47,18.47,0,0,0,52.19,35.56Zm-6-4A1.72,1.72,0,0,1,47.9,30.1h.51a1.7,1.7,0,0,1,1.67,1.51l.42,3.7a20.47,20.47,0,0,0-2.35-.17,20.8,20.8,0,0,0-2.35.17ZM62.43,72.09a3.37,3.37,0,0,1-3.36,3.36H37.23a3.37,3.37,0,0,1-3.36-3.36V65.37a14.28,14.28,0,0,1,28.56,0Zm.76-20.15a15.13,15.13,0,0,0-30.07,0H31.44a16.8,16.8,0,0,1,33.43,0Z"/></g></svg>