<svg xmlns="http://www.w3.org/2000/svg" viewBox="0 0 100 100"><defs><style>.cls-1{fill:#539ed0;}</style></defs><title>0009</title><g id="Layer_2" data-name="Layer 2"><path class="cls-1" d="M55.83,31A10.18,10.18,0,0,1,64.5,41.29a20.75,20.75,0,0,1-6.56,14.83,7.22,7.22,0,0,1-6.12,1.75c-1-.15-1.89-.45-2.82-.67a1.46,1.46,0,0,0-.59,0l-2.11.55a7.44,7.44,0,0,1-6.6-1.48,13.55,13.55,0,0,1-2-2,20.2,20.2,0,0,1-4-7.45,19.77,19.77,0,0,1-.78-4.6,12.1,12.1,0,0,1,.08-2.82,10,10,0,0,1,3.3-6,10.46,10.46,0,0,1,7.93-2.52,19.22,19.22,0,0,1,3.3.52c.19,0,.22,0,.22-.19A4.62,4.62,0,0,0,47.67,30a5.64,5.64,0,0,0-2.75-3.71c-.29-.18-.29-.18-.14-.52s.4-.78.55-1.18a.22.22,0,0,1,.33-.12,8.35,8.35,0,0,1,.78.49,7.41,7.41,0,0,1,2.41,2.74c.12.19.15.19.26,0a5.17,5.17,0,0,1,.71-.85,8.27,8.27,0,0,1,5.93-2.56,9.9,9.9,0,0,1,3.86.85c.14.08.14.15.07.26A11.15,11.15,0,0,1,57.53,28a8.33,8.33,0,0,1-5.19,2,7.65,7.65,0,0,1-2.6-.37c-.11,0-.22-.07-.18.11a5.1,5.1,0,0,1,.14,1.52c0,.15,0,.15.19.11a18.09,18.09,0,0,1,4.63-.55c.23,0,.79.07,1.31.14Zm-13.72,3.7a6.29,6.29,0,0,0-3.75,1.93,6.18,6.18,0,0,0-1.74,4.12.93.93,0,0,0,.41,1,1,1,0,0,0,1,.11,1,1,0,0,0,.52-.85,4.06,4.06,0,0,1,.25-1.45,4.52,4.52,0,0,1,4.27-3,.94.94,0,0,0,.93-.78,1,1,0,0,0-.67-1.11,2.32,2.32,0,0,0-.52,0,6.14,6.14,0,0,0-.7.07Z"/><path class="cls-1" d="M72.85,79.46H33.9a9.31,9.31,0,0,1,0-18.62H72.85v3.65H33.9a5.66,5.66,0,1,0,0,11.32H72.85Z"/><path class="cls-1" d="M72,66H33a4,4,0,0,0-2.56,1.78H72Z"/><path class="cls-1" d="M72,69.22H29.87a3.14,3.14,0,0,0-.08.86,2.79,2.79,0,0,0,.08.85H72Z"/><path class="cls-1" d="M72,72.4H30.41A4.1,4.1,0,0,0,33,74.19H72Z"/></g></svg>