<svg xmlns="http://www.w3.org/2000/svg" viewBox="0 0 100 100"><defs><style>.cls-1{fill:#539ed0;}</style></defs><title>0010</title><g id="Layer_2" data-name="Layer 2"><path class="cls-1" d="M57.1,45.27a1.52,1.52,0,1,1-1.52-1.52A1.49,1.49,0,0,1,57.1,45.27ZM45,43.75a1.52,1.52,0,1,0,1.52,1.52A1.49,1.49,0,0,0,45,43.75Zm5.34,0a1.52,1.52,0,1,0,1.52,1.52A1.53,1.53,0,0,0,50.3,43.75Zm19.79,3.17c-.46,8.77-6.46,11.21-6.4,18.4v8.32a1.89,1.89,0,0,1-1.38,1.71L41.73,79a1.09,1.09,0,0,1-1.39-1.06v-5.8L34.6,73a4.14,4.14,0,0,1-4.15-4.16V61.43H28.54c-2.18,0-3.17-1.58-2.11-3.56l4-7.72v-3.3A19.75,19.75,0,0,1,41.93,28.91,20.16,20.16,0,0,1,50.37,27c10.82.13,20.32,9,19.72,19.92ZM59,36.57A12.28,12.28,0,0,0,41.07,53.39l.13.13a5.67,5.67,0,0,1-2.51,2.83.5.5,0,0,0,.14.93A6.88,6.88,0,0,0,44,55.83,12.28,12.28,0,0,0,59,36.57Z"/></g></svg>