<svg xmlns="http://www.w3.org/2000/svg" viewBox="0 0 100 100"><defs><style>.cls-1{fill:#539ed0;}</style></defs><title>0012</title><g id="Layer_2" data-name="Layer 2"><path class="cls-1" d="M58.06,29.89a8.73,8.73,0,0,1-17.45,0,8.55,8.55,0,0,1,8.65-8.55,8.66,8.66,0,0,1,8.79,8.55"/><path class="cls-1" d="M40.69,39.35H58V56.89H40.69Z"/><path class="cls-1" d="M45.14,49,27.71,40.12,31.5,34.4l17.43,8.91Z"/><path class="cls-1" d="M26,38.05a3.92,3.92,0,0,0,4.58,2.47,3.4,3.4,0,0,0,2.81-4A3.92,3.92,0,0,0,28.79,34a3.33,3.33,0,0,0-2.81,4"/><path class="cls-1" d="M49.56,43.36,67,34.44l3.79,5.73L53.35,49.08Z"/><path class="cls-1" d="M72.54,38.05A3.93,3.93,0,0,1,68,40.52a3.4,3.4,0,0,1-2.81-4A3.92,3.92,0,0,1,69.73,34a3.43,3.43,0,0,1,2.81,4"/><path class="cls-1" d="M61.16,77.35l-7.54,1.17L51,65.27l6.87-4.87Z"/><path class="cls-1" d="M61.16,77.35a3.54,3.54,0,0,1-3.11,4.16,4,4,0,0,1-4.5-3.06,3.53,3.53,0,0,1,3.1-4.15,4,4,0,0,1,4.51,3"/><path class="cls-1" d="M37.36,77.35,45,78.52l2.65-13.25L40.76,60.4Z"/><path class="cls-1" d="M37.36,77.35a3.55,3.55,0,0,0,3.11,4.16A4,4,0,0,0,45,78.45a3.53,3.53,0,0,0-3.11-4.15,4.12,4.12,0,0,0-4.51,3"/></g></svg>