<svg xmlns="http://www.w3.org/2000/svg" viewBox="0 0 100 100"><defs><style>.cls-1{fill:#539ed0;}</style></defs><title>0013</title><g id="Layer_2" data-name="Layer 2"><path class="cls-1" d="M24.84,46v1.28a29.89,29.89,0,0,0,6.37.65h0a30.06,30.06,0,0,0,6-.57V46.08a29.7,29.7,0,0,1-6,.58A28.84,28.84,0,0,1,24.84,46Zm0,2.77V50a29.82,29.82,0,0,0,6.37.66h0a30.06,30.06,0,0,0,6-.57V48.85a28.91,28.91,0,0,1-6,.59,28.77,28.77,0,0,1-6.37-.68Zm0-5.54v1.27a29.82,29.82,0,0,0,6.37.66h0a30.06,30.06,0,0,0,6-.57V43.3a28.91,28.91,0,0,1-6,.59,29.46,29.46,0,0,1-6.37-.67Zm0-8.33v1.28a29.89,29.89,0,0,0,6.37.65h0a30.06,30.06,0,0,0,6-.57V35a29.62,29.62,0,0,1-6,.59,28.77,28.77,0,0,1-6.37-.68Zm0,25v1.28a29.82,29.82,0,0,0,6.37.66h0a30.82,30.82,0,0,0,6-.57V60a28.91,28.91,0,0,1-6,.59,28.77,28.77,0,0,1-6.37-.68Zm0-8.32v1.28a29.89,29.89,0,0,0,6.37.65h0a30.06,30.06,0,0,0,6-.57V51.63a29.7,29.7,0,0,1-6,.58,28.84,28.84,0,0,1-6.37-.67Zm0,5.55v1.28a29.89,29.89,0,0,0,6.37.65h0a30.06,30.06,0,0,0,6-.57V57.18a29.7,29.7,0,0,1-6,.58,28.84,28.84,0,0,1-6.37-.67Zm0-19.42v1.27a29.19,29.19,0,0,0,6.37.66h0a30.06,30.06,0,0,0,6-.57V37.75a28.91,28.91,0,0,1-6,.59,28.84,28.84,0,0,1-6.37-.67ZM42,36.13a14.44,14.44,0,0,1-2.54,1l-1,.3v1.29A19,19,0,0,0,42,37.49Zm0-2.77a15.31,15.31,0,0,1-2.54,1l-1,.3V36A18.34,18.34,0,0,0,42,34.71Zm0,8.32a14.44,14.44,0,0,1-2.54,1l-1,.3v1.29A19,19,0,0,0,42,43Zm2.15,19V28.5c0-2.3-5.59-4.16-12.49-4.16S19.15,26.2,19.14,28.5V60.72a2.44,2.44,0,0,0-.69,1.6c0,2.77,5.9,5,13.18,5s13.18-2.25,13.18-5A2.44,2.44,0,0,0,44.12,60.72ZM31.63,25.86c4.95,0,9,1.06,9,2.36,0,.94-2.09,1.75-5.12,2.13,1.47-.32,2.41-.81,2.41-1.37,0-.95-2.79-1.73-6.24-1.73S25.39,28,25.39,29c0,.56.94,1.05,2.41,1.37-3-.38-5.12-1.19-5.12-2.13,0-1.3,4-2.36,9-2.36ZM42.73,62c0,.85-3.89,2.92-11.1,2.92S20.53,62.85,20.53,62V59.72a17.93,17.93,0,0,0,2.72,1V59.45a15.53,15.53,0,0,1-2.72-1.08V56.94a17.93,17.93,0,0,0,2.72,1V56.67a15.53,15.53,0,0,1-2.72-1.08v-4.2a16.9,16.9,0,0,0,2.72,1V51.12A15.53,15.53,0,0,1,20.53,50V48.62a17.93,17.93,0,0,0,2.72,1V48.35a15.53,15.53,0,0,1-2.72-1.08V45.84a16.9,16.9,0,0,0,2.72,1V45.57a14.79,14.79,0,0,1-2.72-1.08V43.07a17.93,17.93,0,0,0,2.72,1V42.8a15.53,15.53,0,0,1-2.72-1.08v-4.2a17.93,17.93,0,0,0,2.72,1V37.25a15.53,15.53,0,0,1-2.72-1.08V34.74a17.72,17.72,0,0,0,2.72,1v-1.3a15.46,15.46,0,0,1-2.72-1.07v-3c2.07,1.34,6.26,2.26,11.1,2.26s9-.92,11.1-2.26ZM42,55.55a15,15,0,0,1-2.54,1.05l-1,.3v1.28A19,19,0,0,0,42,56.91ZM42,50a16.29,16.29,0,0,1-2.54,1l-1,.3v1.28A18.34,18.34,0,0,0,42,51.36Zm0-5.55a16.29,16.29,0,0,1-2.54,1l-1,.3v1.28A18.34,18.34,0,0,0,42,45.81Zm0,13.87a14.44,14.44,0,0,1-2.54,1l-1,.3V61A18.34,18.34,0,0,0,42,59.68Zm0-11.1a14.44,14.44,0,0,1-2.54,1l-1,.3v1.29A19,19,0,0,0,42,48.59Z"/><path class="cls-1" d="M81.74,45c2.19,3.6.34,7.64-2.53,10.48V76L53.86,79.28,38.49,70V51a13.93,13.93,0,0,1-3.21-4.49,6.27,6.27,0,0,1,0-5.24,8.06,8.06,0,0,1,5.23-4.34,20.22,20.22,0,0,1,8.45-.6c2.87-1,6.42-2.24,9.46-1.94,4.06.45,21,6.88,23.32,10.62ZM56.23,57.73v19L76.84,74V54.58c7.77-7,1.52-14.82-11.32-9.58-12.84-1.79-17.23,6.29-9.29,12.73ZM66,47.85c.33,0,.67.15.67.45a.68.68,0,0,1-1.35,0c0-.3.34-.45.68-.45ZM68.22,70.6a.6.6,0,1,1-.68.6A.69.69,0,0,1,68.22,70.6ZM65,68.5c.34,0,.68.15.68.45a.69.69,0,0,1-.68.6c-.51,0-.84-.3-.84-.6S64.5,68.5,65,68.5Zm-5.91-16a.69.69,0,0,1,.67.6c0,.3-.34.45-.67.45-.51,0-.68-.15-.68-.45S58.59,52.49,59.1,52.49Zm11.66,9.28a2.55,2.55,0,0,1,1.69-.3c.33,0,.16.3-.34.6a3.11,3.11,0,0,1-1.86.45c-.34-.15,0-.45.51-.75ZM64,51.29a4.11,4.11,0,0,1,1.69-.45c.34.15.17.45-.51.75a4.14,4.14,0,0,1-1.69.45C63.15,51.89,63.32,51.59,64,51.29Zm9.29-5.39A4.14,4.14,0,0,1,75,45.45c.34.15.17.45-.51.75a4.14,4.14,0,0,1-1.69.45C72.44,46.5,72.61,46.2,73.29,45.9Zm-12.59,18c.51,0,1,.3,1,.75,0,.3-.51.6-1,.6s-.84-.3-.84-.6A.76.76,0,0,1,60.7,63.89ZM75,68.06c.68,0,1.18.29,1.18.74s-.51.75-1.18.75c-.51,0-1-.3-1-.75S74.47,68.06,75,68.06ZM64.34,60c.67,0,1.18.3,1.18.75s-.51.75-1.18.75c-.51,0-1-.45-1-.75S63.83,60,64.34,60ZM62,47.1c.51,0,1,.3,1,.75,0,.3-.5.75-1,.75-.68,0-1.18-.45-1.18-.75C60.79,47.4,61.3,47.1,62,47.1Z"/></g></svg>