<svg xmlns="http://www.w3.org/2000/svg" viewBox="0 0 100 100"><defs><style>.cls-1{fill:#539ed0;}</style></defs><title>0014</title><g id="Layer_2" data-name="Layer 2"><path class="cls-1" d="M66,30l-.16.38,3.72,3.72-.92.92-3.45-3.45c0,.1-.16.21-.21.32a5.81,5.81,0,0,1-.75.81,2.27,2.27,0,0,0-.38.38l3.39,3.39-.91.92-3.56-3.56c-.65.43-1.24.76-1.83,1.08l3.88,3.88-.92.92-4.15-4.15a1,1,0,0,0-.27.16,6,6,0,0,0-.65.54l-.1.11a3.72,3.72,0,0,1-.43.48,0,0,0,0,0,0,.05L62.48,41l-.92.92-4-4L56.88,39a3.25,3.25,0,0,1-.38.49c-.06,0-.11.1-.16.1l3.72,3.72a31.45,31.45,0,0,1-7.23,4.85A50.27,50.27,0,0,0,39.2,57.74L25,72.14a1.28,1.28,0,0,0,0,1.78l1.35,1.34a1.26,1.26,0,0,0,1.78,0L42,61.3a46,46,0,0,1,12.77-9,35.83,35.83,0,0,0,9.81-7l8.62-8.62a1.26,1.26,0,0,0,0-1.78l-6.41-6.41a.54.54,0,0,0-.38-.22A6,6,0,0,1,66,30Z"/><path class="cls-1" d="M63.23,24.76c-.26.37-.48.75-.75,1.08a6.74,6.74,0,0,1-1.35,1.4,11.56,11.56,0,0,1-1.34.75c-.49.22-1.14.49-1.89.86a11.74,11.74,0,0,0-2.64,1.73,6.18,6.18,0,0,0-1.56,6.3,6.11,6.11,0,0,0,.75,1.57.83.83,0,0,0,1.4-.06c.27-.48.49-.91.76-1.35a8.92,8.92,0,0,1,1.18-1.67,6.54,6.54,0,0,1,1-.86c.32-.21.86-.48,1.56-.86a12.47,12.47,0,0,0,2.37-1.51,6.67,6.67,0,0,0,1.18-1.24,6.22,6.22,0,0,0,.87-1.51,6.61,6.61,0,0,0,.37-3.18,6.73,6.73,0,0,0-.43-1.46.94.94,0,0,0-1.51,0Z"/></g></svg>