<svg xmlns="http://www.w3.org/2000/svg" viewBox="0 0 100 100"><defs><style>.cls-1{fill:none;stroke:#539ed0;stroke-linecap:round;stroke-miterlimit:10;stroke-width:2px;}.cls-2{fill:#539ed0;}</style></defs><title>0015</title><g id="Layer_2" data-name="Layer 2"><path class="cls-1" d="M87,60.38a5.69,5.69,0,0,1-5.8,5.54H18.76A5.69,5.69,0,0,1,13,60.38"/><path class="cls-2" d="M40.11,36.6V35.15a1.52,1.52,0,0,0-1.52-1.52h-11a1.52,1.52,0,0,0-1.52,1.52V36.6a.16.16,0,0,1,0,.12L20.82,43a.38.38,0,0,0-.08.24V61a.38.38,0,0,0,.38.38H45.43a.38.38,0,0,0,.38-.38V43.28a.35.35,0,0,0-.1-.26l-5.55-6.29a.21.21,0,0,1,0-.13Zm-7.6,22.49a.76.76,0,1,1-1.52,0V44a.08.08,0,0,0-.07-.08H23.44a.76.76,0,1,1,0-1.52h6.5a.07.07,0,0,0,.06-.12l-2.65-3a.76.76,0,0,1,1.17-1l3.59,4.07.06,0H43a.76.76,0,1,1,0,1.52H32.59a.09.09,0,0,0-.08.08Zm11-.76H34.79a.38.38,0,0,1-.38-.38V46.55a.38.38,0,0,1,.38-.38h8.74a.38.38,0,0,1,.38.38V58A.38.38,0,0,1,43.53,58.33Z"/><path class="cls-2" d="M80.61,59.05a2.26,2.26,0,0,1-2.18,2.32H56a2.26,2.26,0,0,1-2.18-2.32v-.27c0-1.28-.14-2.31.88-2.31h25c1.09,0,.88,1,.88,2.31Z"/><path class="cls-2" d="M79.48,49.78c-1.16,1-4.11,3.4-4.75,2.49s-5-2.11-7.07-2.65H55.1a1.58,1.58,0,0,0-1.68,1.43V53.2a1.58,1.58,0,0,0,1.68,1.44H78.72A1.58,1.58,0,0,0,80.4,53.2V51.05a1.41,1.41,0,0,0-.92-1.27Z"/><path class="cls-2" d="M78.35,40.17c-2.28-2.65-6.12-4-11.44-4s-9.16,1.34-11.43,4a9,9,0,0,0-2.07,6.77,1.14,1.14,0,0,0,1.1,1h24.8a1.13,1.13,0,0,0,1.1-1,9,9,0,0,0-2.06-6.75Zm-18.3,1.75c-.35.76-.93,1.25-1.3,1.09s-.37-.93,0-1.69.93-1.26,1.29-1.1S60.4,41.15,60.05,41.92ZM63.75,44c-.29.89-.87,1.49-1.3,1.35s-.53-1-.23-1.86.87-1.49,1.29-1.34.54,1,.24,1.85Zm3.34-1.61c-.44,0-.8-.66-.8-1.47s.36-1.47.8-1.47.81.66.81,1.47-.36,1.47-.81,1.47Zm4,3c-.43.07-.9-.59-1-1.47s.1-1.66.54-1.73.9.59,1,1.47S71.49,45.29,71.05,45.36Zm4.63-2.09c-.36.17-1-.33-1.37-1.14s-.44-1.59-.08-1.77,1,.33,1.37,1.13.43,1.6.08,1.78Z"/></g></svg>