<svg xmlns="http://www.w3.org/2000/svg" viewBox="0 0 100 100"><defs><style>.cls-1{fill:#539ed0;}</style></defs><title>0016</title><g id="Layer_2" data-name="Layer 2"><path class="cls-1" d="M52.2,35.49a2.23,2.23,0,0,0-2.76-.34,7.64,7.64,0,0,0-10.48,0,3.13,3.13,0,0,0-2-.73,3,3,0,0,0-.95.16l-3.26-3.26a3.13,3.13,0,0,0-4.41,0l-4.44,4.44v2.41l5.65-5.65a1.46,1.46,0,0,1,2,0l3,3-.81.8L32,34.49a2,2,0,0,0-2.8,0l-5.25,5.24v2.4l6.45-6.44a.27.27,0,0,1,.2-.08.29.29,0,0,1,.2.08l2.05,2.06a3.11,3.11,0,0,0,.6,3,7.66,7.66,0,0,0,.42,10,2.26,2.26,0,0,0,3.54,2.76L52.2,38.69a2.27,2.27,0,0,0,0-3.2Zm-14.45.82-3.16,3.17a1.41,1.41,0,0,1,.18-1.79l1.2-1.2a1.39,1.39,0,0,1,1-.41,1.42,1.42,0,0,1,.78.23Zm-2.58,5L40,36.49a5.94,5.94,0,0,1,8.2-.19L35,49.51a6,6,0,0,1,.19-8.21ZM51,37.49,36.17,52.32a.59.59,0,0,1-.8,0,.56.56,0,0,1-.17-.4.54.54,0,0,1,.17-.4L50.2,36.69a.52.52,0,0,1,.4-.16.55.55,0,0,1,.4.16.57.57,0,0,1,0,.8Z"/><path class="cls-1" d="M51,53.52l-2.41-2.4,1.2-1.21,2.41,2.41Z"/><path class="cls-1" d="M47.39,49.91,45,47.51l1.2-1.2,2.4,2.4Z"/><path class="cls-1" d="M55.81,58.33l1.2-1.2,2.4,2.4-1.2,1.2Z"/><path class="cls-1" d="M54.61,57.13,52.2,54.72l1.2-1.2,2.41,2.4Z"/><path class="cls-1" d="M60.62,60.73,63,63.14l-1.2,1.2-2.41-2.4Z"/><path class="cls-1" d="M64.22,64.34l2.41,2.4L65.42,68,63,65.54Z"/><path class="cls-1" d="M68.63,71.15l-2-2,1.2-1.2,2,2Z"/><path class="cls-1" d="M59.15,69.29l1.28-1.12,2.24,2.56-1.28,1.11Z"/><path class="cls-1" d="M50.36,56.65l2.24,2.56-1.28,1.12-2.24-2.56Z"/><path class="cls-1" d="M64.75,75.68l-2.24-2.56L63.79,72,66,74.57Z"/><path class="cls-1" d="M53.72,60.49,56,63.05l-1.28,1.12-2.24-2.56Z"/><path class="cls-1" d="M47,52.81l2.24,2.55L48,56.48l-2.24-2.56Z"/><path class="cls-1" d="M44.61,52.65l-2.24-2.56L43.65,49l2.24,2.56Z"/><path class="cls-1" d="M57.08,64.33l2.24,2.56L58,68,55.8,65.45Z"/><path class="cls-1" d="M45.79,61l1.38-1,2,2.75-1.38,1Z"/><path class="cls-1" d="M54.78,73.38l1.38-1,2,2.75-1.37,1Z"/><path class="cls-1" d="M51.78,69.25l1.38-1,2,2.75-1.38,1Z"/><path class="cls-1" d="M59.77,80.25l-2-2.75,1.38-1,2,2.75Z"/><path class="cls-1" d="M42.79,56.86l1.38-1,2,2.75-1.38,1Z"/><path class="cls-1" d="M39.8,52.73l1.38-1,2,2.76-1.38,1Z"/><path class="cls-1" d="M48.79,65.12l1.37-1,2,2.75-1.38,1Z"/><path class="cls-1" d="M53.85,50.76l-2.56-2.24,1.12-1.28L55,49.48Z"/><path class="cls-1" d="M50,47.4l-2.56-2.23,1.12-1.28,2.56,2.23Z"/><path class="cls-1" d="M56.25,50.6l2.56,2.24-1.12,1.28-2.56-2.24Z"/><path class="cls-1" d="M69.21,64.19,66.65,62l1.12-1.28,2.56,2.24Z"/><path class="cls-1" d="M73.05,67.55l-2.56-2.24L71.61,64l2.56,2.24Z"/><path class="cls-1" d="M60.09,54l2.56,2.24-1.12,1.28L59,55.23Z"/><path class="cls-1" d="M65.37,60.83l-2.56-2.24,1.12-1.27,2.56,2.23Z"/><path class="cls-1" d="M73.61,59.67l-2.75-2,1-1.37,2.75,2Z"/><path class="cls-1" d="M75,60.66l1-1.38,2.75,2-1,1.38Z"/><path class="cls-1" d="M69.49,56.67l-2.75-2,1-1.37,2.76,2Z"/><path class="cls-1" d="M59.48,47.31l2.75,2-1,1.38-2.75-2Z"/><path class="cls-1" d="M63.6,50.3l2.75,2-1,1.38-2.76-2Z"/><path class="cls-1" d="M55.35,44.31l2.75,2-1,1.38-2.75-2Z"/><path class="cls-1" d="M53,44.69l-2.75-2,1-1.37,2.75,2Z"/></g></svg>