<svg xmlns="http://www.w3.org/2000/svg" viewBox="0 0 100 100"><defs><style>.cls-1{fill:#539ed0;}</style></defs><title>0017</title><g id="Layer_2" data-name="Layer 2"><path class="cls-1" d="M64.7,75.94H31a1,1,0,0,1-1-1V53l-.71.69a1,1,0,0,1-1,.22c-1.48-.55-7.91-7-9.85-9a1,1,0,0,1-.19-1.07c1-2.29,8.35-11,9.81-12.78C32,26.41,40.42,24.6,40.77,24.52a1,1,0,0,1,.77.16,11.63,11.63,0,0,0,6.33,1.53,11.63,11.63,0,0,0,6.33-1.53,1,1,0,0,1,.76-.16c.36.08,8.75,1.89,12.69,6.54,2,2.44,8.84,10.55,9.81,12.78a1,1,0,0,1-.2,1.07c-1.93,2-8.37,8.47-9.84,9a1,1,0,0,1-1-.22L65.68,53V75a1,1,0,0,1-1,1ZM32,74h31.7V50.7a1,1,0,0,1,.6-.9,1,1,0,0,1,1.06.2l1.83,1.78c1.39-1.06,4.93-4.45,8.15-7.72a141.31,141.31,0,0,0-9.21-11.74c-3.06-3.61-9.56-5.39-11.21-5.8a14,14,0,0,1-7.07,1.64,14,14,0,0,1-7.08-1.64c-1.65.41-8.15,2.19-11.2,5.8a139.77,139.77,0,0,0-9.22,11.74c3.22,3.26,6.75,6.64,8.16,7.72L30.35,50a1,1,0,0,1,1.06-.2,1,1,0,0,1,.6.9Z"/><path class="cls-1" d="M47.87,34c-2.75,0-4.84-.81-6.22-2.42A8.44,8.44,0,0,1,40,25.33a1,1,0,0,1,.58-.75,1,1,0,0,1,.95.1,11.63,11.63,0,0,0,6.33,1.53,11.63,11.63,0,0,0,6.33-1.53,1,1,0,0,1,1.53.65,8.49,8.49,0,0,1-1.64,6.25C52.71,33.18,50.62,34,47.87,34Zm-5.95-6.9a5.66,5.66,0,0,0,1.22,3.22A6,6,0,0,0,47.87,32a6,6,0,0,0,4.72-1.72,5.59,5.59,0,0,0,1.22-3.22,15.61,15.61,0,0,1-5.94,1.06,15.7,15.7,0,0,1-5.95-1.06Z"/><path class="cls-1" d="M67.07,54a.93.93,0,0,1-.68-.28L64,51.4a1,1,0,0,1-.3-.69v-15c0-.17,0-4.08,2.88-5a1,1,0,0,1,1,.3c2.06,2.44,8.85,10.55,9.82,12.78a1,1,0,0,1-.2,1.07c-1.94,2-8.37,8.47-9.85,9a1,1,0,0,1-.34.06Zm-1.39-3.7,1.53,1.49c1.4-1.07,4.93-4.46,8.15-7.72a132.06,132.06,0,0,0-8.7-11.13,4.52,4.52,0,0,0-1,2.8Z"/><path class="cls-1" d="M28.67,54a1,1,0,0,1-.35-.06c-1.48-.55-7.91-7-9.85-9a1,1,0,0,1-.19-1.07c1-2.29,8.35-11,9.81-12.78a1,1,0,0,1,1-.3c2.85.9,2.89,4.81,2.89,5v15a1,1,0,0,1-.3.7l-2.37,2.31a1,1,0,0,1-.68.28Zm-8.3-9.93c3.23,3.26,6.75,6.65,8.16,7.72l1.53-1.49V35.74a4.51,4.51,0,0,0-1-2.81,138.28,138.28,0,0,0-8.7,11.13Z"/><path class="cls-1" d="M28.67,54a1,1,0,0,1-.35-.06c-1.48-.55-7.91-7-9.85-9a1,1,0,0,1-.19-1.07,25,25,0,0,1,2.68-4,1,1,0,0,1,1.49-.08c2.25,2.33,5.68,5.82,9.26,9.18a1,1,0,0,1,.31.71v1a1,1,0,0,1-.3.69l-2.37,2.31a1,1,0,0,1-.69.28Zm-8.29-9.93c3.22,3.26,6.75,6.65,8.15,7.72l1.53-1.49v-.2C27,47.17,24,44.19,21.83,42c-.76,1-1.2,1.69-1.45,2.11Z"/><path class="cls-1" d="M67.07,54a.93.93,0,0,1-.68-.28L64,51.4a1,1,0,0,1-.3-.69v-1A1,1,0,0,1,64,49c3.59-3.36,7-6.85,9.26-9.18a1,1,0,0,1,.76-.3,1,1,0,0,1,.73.38,26,26,0,0,1,2.69,4,1,1,0,0,1-.2,1.07c-1.94,2-8.37,8.47-9.85,9a1.07,1.07,0,0,1-.35.06Zm-1.39-3.7,1.53,1.49c1.4-1.07,4.93-4.46,8.15-7.72-.26-.42-.7-1.08-1.46-2.11-2.16,2.24-5.12,5.22-8.22,8.14Z"/><path class="cls-1" d="M64.7,75.94H31a1,1,0,0,1-1-1V71.05a1,1,0,0,1,1-1H64.7a1,1,0,0,1,1,1V75A1,1,0,0,1,64.7,75.94ZM32,74h31.7V72H32Z"/></g></svg>