<svg xmlns="http://www.w3.org/2000/svg" viewBox="0 0 100 100"><defs><style>.cls-1{fill:#539ed0;}</style></defs><title>0018</title><g id="Layer_2" data-name="Layer 2"><path class="cls-1" d="M29.42,24a2,2,0,0,0-1.83,1.84V76a1.9,1.9,0,0,0,1.83,1.83H68.57A1.91,1.91,0,0,0,70.41,76V36.85a1.87,1.87,0,0,0-.54-1.3l-11-11a1.87,1.87,0,0,0-1.3-.54Zm.74,2.58H55.73V36.85a1.9,1.9,0,0,0,1.83,1.83H67.83V75.26H30.16ZM58.3,28.06l8,8.05h-8Z"/><path class="cls-1" d="M38.48,56.06h2.91v7.26H38.48Z"/><path class="cls-1" d="M44.29,56.06h2.9v7.26h-2.9Z"/><path class="cls-1" d="M50.1,56.06H53v7.26H50.1Z"/><path class="cls-1" d="M55.9,56.06h2.91v7.26H55.9Z"/><path class="cls-1" d="M35.58,52.43H61.71v2.91H35.58Z"/><path class="cls-1" d="M35.58,64H61.71V67H35.58Z"/><path class="cls-1" d="M58.77,51.71c0-.24,0-.48,0-.73a10.16,10.16,0,0,0-8.71-10V36.46a1.46,1.46,0,0,0-2.91,0v4.47a10.16,10.16,0,0,0-8.71,10c0,.25,0,.49,0,.73Z"/></g></svg>