<svg xmlns="http://www.w3.org/2000/svg" viewBox="0 0 100 100"><defs><style>.cls-1{fill:#539ed0;}</style></defs><title>0019</title><g id="Layer_2" data-name="Layer 2"><path class="cls-1" d="M57.88,43.91c8.75.8,14.94,2.75,14.94,5,0,3-10.58,5.4-23.64,5.4s-23.64-2.42-23.64-5.4c0-2.13,5.74-4,13.54-4.88a3.86,3.86,0,0,0-.19-1.18c-.24-.68-.69-.61-.69-.61-8.92,1.14-15.11,3.64-15.11,6.55,0,0-1.71,14.43,13.79,21.64,0,0,1.18.55.75,1.28-.18.29-1,.54-.91,1h0c0,1.46,5.46,1.85,12.19,1.85s12.37-.39,12.37-1.85h0c.09-.48-.73-.73-.9-1-.44-.73.74-1.28.74-1.28,14.13-6.56,14-19.11,13.83-21.3,0-.11,0-.22,0-.34,0-3.09-7-5.73-16.85-6.76a.94.94,0,0,0-.44.76,2.37,2.37,0,0,0,.19,1.09Z"/><path class="cls-1" d="M53.79,29.68c.18-2.34-1.34-4.44-3.13-6-1.19-1-3,.6-1.8,1.62,2,1.72,3,3.83,1.88,6.24-1,2.12-3.06,3.56-4,5.73-1.73,4,0,8.71,2.8,11.91,1,1.16,2.8-.47,1.8-1.62-3-3.4-3.87-8.48-.57-11.91a9.9,9.9,0,0,0,3-6Z"/><path class="cls-1" d="M60.1,32.27c.14-1.9-1.09-3.61-2.55-4.86-1-.84-2.43.48-1.47,1.32,1.63,1.4,2.46,3.11,1.53,5.07-.81,1.73-2.49,2.9-3.25,4.66-1.4,3.24,0,7.1,2.28,9.7.82,1,2.28-.39,1.46-1.32-2.41-2.77-3.15-6.9-.46-9.7a8,8,0,0,0,2.46-4.87Z"/><path class="cls-1" d="M45.65,30.54c.14-1.9-1.09-3.61-2.55-4.86-1-.83-2.43.49-1.46,1.32,1.62,1.4,2.45,3.12,1.52,5.08-.81,1.72-2.48,2.89-3.25,4.66-1.4,3.24,0,7.09,2.28,9.69.82,1,2.28-.38,1.46-1.32-2.41-2.76-3.15-6.9-.46-9.69a8,8,0,0,0,2.46-4.88Z"/></g></svg>