<svg xmlns="http://www.w3.org/2000/svg" viewBox="0 0 100 100"><defs><style>.cls-1{fill:#539ed0;}</style></defs><title>0020</title><g id="Layer_2" data-name="Layer 2"><path class="cls-1" d="M21.87,34V50.26c0,13.56,19,21.7,19,21.7H57.14s19-8.14,19-21.7V34Zm2.71,14a.55.55,0,0,0,.44.21.56.56,0,1,0-.44-.91v-2a.55.55,0,0,0,.44.21.57.57,0,1,0-.44-.91v-2a.56.56,0,0,0,.44.22.57.57,0,1,0-.44-.92V40a.55.55,0,0,0,.44.21.57.57,0,1,0-.44-.91v-2a.56.56,0,0,0,.44.22.57.57,0,0,0,.49-.86H27.2a.57.57,0,1,0,1,0h1.68a.57.57,0,1,0,1,0h1.22V37.9a.57.57,0,1,0-.38,1,.56.56,0,0,0,.38-.14v.66H29.34v5.42h2.72v1.06a.57.57,0,1,0-.38,1,.56.56,0,0,0,.38-.14v1.82a.57.57,0,1,0-.38,1,.61.61,0,0,0,.38-.14v2.83a21.85,21.85,0,0,0-3.81-1.86.54.54,0,0,0-.08-.38.56.56,0,0,0-1,0,25.94,25.94,0,0,0-2.63-.69ZM36.24,66.35a.56.56,0,0,0-.56-.63.64.64,0,0,0-.28.07c-.22-.14-.43-.29-.65-.45a.62.62,0,0,0,.09-.12.57.57,0,1,0-1-.53l-.68-.52a.58.58,0,0,0,.35-.27.57.57,0,1,0-1.06-.29l-.93-.79a.55.55,0,0,0,.65-.26.56.56,0,1,0-1-.05c-.4-.36-.8-.74-1.19-1.12a.57.57,0,1,0-.11-.13l.05.06c-.38-.38-.74-.77-1.1-1.18a.55.55,0,0,0,.69-.25.56.56,0,1,0-1-.16c-.24-.29-.47-.58-.7-.88a.54.54,0,0,0,.41-.28.57.57,0,0,0-.49-.85.56.56,0,0,0-.5.31l-.44-.67a.64.64,0,0,0,.1-.13.57.57,0,0,0-.49-.85l-.16,0A14.62,14.62,0,0,1,25,53.53a.56.56,0,0,0,.46-.87.55.55,0,0,0-.71-.21c0-.13-.05-.26-.07-.39a19,19,0,0,1,2.44.71.57.57,0,0,0,.53.76.56.56,0,0,0,.52-.35,16.38,16.38,0,0,1,8.69,8.54.57.57,0,0,0-.37.86.56.56,0,0,0,.79.16,21.48,21.48,0,0,1,.89,3,.56.56,0,0,0-.35.85.57.57,0,0,0,.56.26c0,.29.1.59.14.9-.7-.39-1.49-.86-2.32-1.39Zm20.31,2.9H41.45c-.56-7.29-3.34-12-6.68-15V44.83H40.2V39.41H34.77V36.69H63.23v2.72H57.8v5.42h5.43v9.45c-3.34,3-6.13,7.68-6.68,15Zm16.66-16.8a.57.57,0,0,0-.73.24.56.56,0,0,0,.48.84,14.38,14.38,0,0,1-1.17,2.88.36.36,0,0,0-.15,0,.57.57,0,0,0-.48.87l.09.1c-.14.23-.29.46-.44.68a.55.55,0,0,0-.5-.31.57.57,0,0,0-.48.87.62.62,0,0,0,.39.26q-.33.44-.69.87a.57.57,0,0,0-.55-.68.56.56,0,1,0,.2,1.09c-.36.42-.74.82-1.13,1.21l.09-.11a.57.57,0,0,0-.49-.85.57.57,0,1,0,.39,1c-.4.4-.8.78-1.22,1.16a.57.57,0,1,0-.34.3l-.93.8a.57.57,0,0,0-.57-.56.57.57,0,0,0-.48.87.63.63,0,0,0,.34.25l-.69.52a.56.56,0,1,0-1,.55.39.39,0,0,0,.08.1l-.66.45a.51.51,0,0,0-.28-.08.56.56,0,0,0-.56.63c-.83.53-1.61,1-2.32,1.4,0-.3.09-.61.14-.9a.57.57,0,0,0,.22-1.11,19.73,19.73,0,0,1,.88-3,.57.57,0,1,0,.43-1,16.35,16.35,0,0,1,8.69-8.54.55.55,0,0,0,.52.35.57.57,0,0,0,.53-.77,19.2,19.2,0,0,1,2.43-.7l-.06.38Zm.21-13.15a.56.56,0,1,0-.45.91.55.55,0,0,0,.44-.21v2a.56.56,0,0,0-.93.07.57.57,0,0,0,.49.85.55.55,0,0,0,.44-.21v2a.56.56,0,0,0-.93.07.57.57,0,0,0,.49.85.56.56,0,0,0,.44-.22v2a.57.57,0,1,0,0,.71v1.33a23.54,23.54,0,0,0-2.63.69v0a.57.57,0,0,0-1,0,.56.56,0,0,0-.07.35,21.56,21.56,0,0,0-3.81,1.87V49.41a.56.56,0,0,0,.38.14.57.57,0,1,0-.37-1V46.74a.52.52,0,0,0,.37.15.57.57,0,0,0,.48-.87.56.56,0,0,0-.85-.12V44.83h2.71V39.41H65.94v-.66a.61.61,0,0,0,.38.14A.57.57,0,0,0,66.8,38a.57.57,0,0,0-.86-.12V36.69h1.22a.57.57,0,1,0,1,0h1.69a.57.57,0,1,0,1,0h1.68a.57.57,0,0,0,.94.64v2Z"/><path class="cls-1" d="M27.69,55.06a.57.57,0,0,0-.48.87.56.56,0,0,0,1,0,.57.57,0,0,0-.49-.85Z"/><path class="cls-1" d="M29,56.39a.57.57,0,1,0,.49.84.57.57,0,0,0-.49-.84Z"/><path class="cls-1" d="M30.35,57.73a.57.57,0,1,0,.49.85.57.57,0,0,0-.49-.85Z"/><path class="cls-1" d="M30.35,55.06a.57.57,0,0,0-.48.87.56.56,0,0,0,1,0,.57.57,0,0,0-.49-.85Z"/><path class="cls-1" d="M31.68,59.05a.57.57,0,1,0,.49.85.57.57,0,0,0-.49-.85Z"/><path class="cls-1" d="M31.68,56.39a.57.57,0,1,0,.49.84.57.57,0,0,0-.49-.84Z"/><path class="cls-1" d="M33,60.39a.57.57,0,0,0-.48.87.56.56,0,0,0,1,0,.57.57,0,0,0-.49-.85Z"/><path class="cls-1" d="M33,57.73a.57.57,0,1,0,.49.85.57.57,0,0,0-.49-.85Z"/><path class="cls-1" d="M34.35,61.71a.57.57,0,1,0,.49.85.57.57,0,0,0-.49-.85Z"/><path class="cls-1" d="M34.35,59.05a.57.57,0,1,0,.49.85.57.57,0,0,0-.49-.85Z"/><path class="cls-1" d="M35.68,63.06a.57.57,0,1,0,.49.84.57.57,0,0,0-.49-.84Z"/><path class="cls-1" d="M35.68,60.39a.57.57,0,0,0-.48.87.56.56,0,0,0,1,0,.57.57,0,0,0-.49-.85Z"/><path class="cls-1" d="M37,64.38a.57.57,0,1,0,.49.84.57.57,0,0,0-.49-.84Z"/><path class="cls-1" d="M61,64.38a.57.57,0,1,0,.49.84.57.57,0,0,0-.49-.84Z"/><path class="cls-1" d="M62.32,63.06a.57.57,0,1,0,.49.84.57.57,0,0,0-.49-.84Z"/><path class="cls-1" d="M62.32,60.39a.57.57,0,0,0-.48.87.56.56,0,0,0,1,0,.57.57,0,0,0-.49-.85Z"/><path class="cls-1" d="M63.65,61.71a.57.57,0,1,0,.49.85.57.57,0,0,0-.49-.85Z"/><path class="cls-1" d="M63.65,59.05a.57.57,0,1,0,.49.85.57.57,0,0,0-.49-.85Z"/><path class="cls-1" d="M65,60.39a.56.56,0,0,0-.48.87.55.55,0,0,0,1,0,.56.56,0,0,0-.48-.85Z"/><path class="cls-1" d="M65,57.73a.56.56,0,1,0,.48.85.56.56,0,0,0-.48-.85Z"/><path class="cls-1" d="M66.32,59.05a.56.56,0,1,0,.48.85.56.56,0,0,0-.48-.85Z"/><path class="cls-1" d="M66.32,56.39a.56.56,0,1,0,.48.84.56.56,0,0,0-.48-.84Z"/><path class="cls-1" d="M67.65,57.73a.57.57,0,1,0,.49.85.57.57,0,0,0-.49-.85Z"/><path class="cls-1" d="M67.65,55.06a.57.57,0,1,0,.49.85.57.57,0,0,0-.49-.85Z"/><path class="cls-1" d="M69,56.39a.57.57,0,1,0,.49.84.57.57,0,0,0-.49-.84Z"/><path class="cls-1" d="M70.31,55.06a.57.57,0,0,0-.48.87.56.56,0,0,0,1,0,.57.57,0,0,0-.49-.85Z"/><path class="cls-1" d="M71.15,38a.57.57,0,1,0,1,0,.57.57,0,0,0-1,0Z"/><path class="cls-1" d="M71.15,40.71a.57.57,0,1,0,1,0,.57.57,0,0,0-1,0Z"/><path class="cls-1" d="M71.15,43.37a.57.57,0,1,0,1,0,.57.57,0,0,0-1,0Z"/><path class="cls-1" d="M71.15,46a.57.57,0,1,0,1,0,.56.56,0,0,0-1,0Z"/><path class="cls-1" d="M71.15,48.7a.57.57,0,1,0,1,0,.56.56,0,0,0-1,0Z"/><path class="cls-1" d="M71.64,54.88a.57.57,0,0,0,.48-.87.56.56,0,0,0-1,0,.57.57,0,0,0,.49.85Z"/><path class="cls-1" d="M69.82,39.37a.57.57,0,1,0,1,0,.56.56,0,0,0-1,0Z"/><path class="cls-1" d="M69.82,42a.57.57,0,1,0,1,0,.56.56,0,0,0-1,0Z"/><path class="cls-1" d="M69.82,44.7a.57.57,0,1,0,1,0,.56.56,0,0,0-1,0Z"/><path class="cls-1" d="M69.82,47.36a.57.57,0,1,0,1,0,.56.56,0,0,0-1,0Z"/><path class="cls-1" d="M68.49,38a.57.57,0,1,0,1,0,.57.57,0,0,0-1,0Z"/><path class="cls-1" d="M68.49,46a.56.56,0,0,0,.49.84.57.57,0,1,0-.49-.84Z"/><path class="cls-1" d="M68.49,48.7a.57.57,0,1,0,1,0,.57.57,0,0,0-1,0Z"/><path class="cls-1" d="M68.49,54a.56.56,0,0,0,.49.84.57.57,0,1,0-.49-.84Z"/><path class="cls-1" d="M67.16,47.36a.57.57,0,1,0,1,0,.56.56,0,0,0-1,0Z"/><path class="cls-1" d="M67.16,50a.57.57,0,1,0,1,0,.57.57,0,0,0-1,0Z"/><path class="cls-1" d="M30.35,48.21a.57.57,0,0,0,.48-.87.56.56,0,0,0-1,0,.57.57,0,0,0,.49.85Z"/><path class="cls-1" d="M30.35,50.87a.57.57,0,1,0-.49-.85.57.57,0,0,0,.49.85Z"/><path class="cls-1" d="M29,38.89a.57.57,0,1,0-.49-.85.57.57,0,0,0,.49.85Z"/><path class="cls-1" d="M29,46.88a.57.57,0,1,0-.49-.84.57.57,0,0,0,.49.84Z"/><path class="cls-1" d="M29,49.55a.57.57,0,0,0,.48-.87.56.56,0,0,0-1,0,.57.57,0,0,0,.49.85Z"/><path class="cls-1" d="M28.53,54a.57.57,0,1,0,1,0,.56.56,0,0,0-1,0Z"/><path class="cls-1" d="M27.69,40.21a.57.57,0,1,0-.49-.84.57.57,0,0,0,.49.84Z"/><path class="cls-1" d="M27.69,42.88a.57.57,0,0,0,.48-.87.56.56,0,0,0-1,0,.57.57,0,0,0,.49.85Z"/><path class="cls-1" d="M27.69,45.54a.57.57,0,1,0-.49-.84.57.57,0,0,0,.49.84Z"/><path class="cls-1" d="M27.69,48.21a.57.57,0,0,0,.48-.87.56.56,0,0,0-1,0,.57.57,0,0,0,.49.85Z"/><path class="cls-1" d="M25.87,38a.57.57,0,1,0,1,0,.57.57,0,0,0-1,0Z"/><path class="cls-1" d="M25.87,40.71a.57.57,0,1,0,1,0,.57.57,0,0,0-1,0Z"/><path class="cls-1" d="M25.87,43.37a.57.57,0,1,0,1,0,.57.57,0,0,0-1,0Z"/><path class="cls-1" d="M25.87,46a.57.57,0,1,0,1,0,.56.56,0,0,0-1,0Z"/><path class="cls-1" d="M25.87,48.7a.57.57,0,1,0,1,0,.56.56,0,0,0-1,0Z"/><path class="cls-1" d="M25.87,54a.57.57,0,1,0,1,0,.56.56,0,0,0-1,0Z"/></g></svg>