<svg xmlns="http://www.w3.org/2000/svg" viewBox="0 0 100 100"><defs><style>.cls-1{fill:#539ed0;stroke:#539ed0;stroke-miterlimit:10;stroke-width:0.5px;}</style></defs><title>0021</title><g id="Layer_2" data-name="Layer 2"><path class="cls-1" d="M76,71.59H26.65A3.7,3.7,0,0,1,23,67.9V36.83a3.69,3.69,0,0,1,3.69-3.69H76a3.69,3.69,0,0,1,3.69,3.69V67.9A3.7,3.7,0,0,1,76,71.59ZM26.65,34.14A2.7,2.7,0,0,0,24,36.83V67.9a2.7,2.7,0,0,0,2.69,2.69H76a2.7,2.7,0,0,0,2.69-2.69V36.83A2.7,2.7,0,0,0,76,34.14Z"/><path class="cls-1" d="M26.3,71.57a7.45,7.45,0,0,1-4.75-1.74,4.36,4.36,0,0,1-1.25-3.21V34.55c0-2,1.65-4.19,3.69-4.19H74.28c3.35,0,5.16,3.57,5.43,6.42l-1,.09c-.23-2.41-1.72-5.51-4.44-5.51H24c-1.49,0-2.69,1.71-2.69,3.19V66.62a3.49,3.49,0,0,0,2.41,3.43,7.34,7.34,0,0,0,2.6.52v1Z"/><path class="cls-1" d="M31.86,43.3A1.28,1.28,0,1,1,33.13,42,1.27,1.27,0,0,1,31.86,43.3Zm0-2a.78.78,0,1,0,.77.77A.76.76,0,0,0,31.86,41.25Z"/><path class="cls-1" d="M34,39.52l.35.35-1.61,1.61-.36-.35Z"/><path class="cls-1" d="M31.08,42.45l.35.35-1.61,1.62-.36-.36Z"/><path class="cls-1" d="M32.61,42.45l1.62,1.62-.36.35L32.26,42.8Z"/><path class="cls-1" d="M29.68,39.52l1.62,1.61-.36.36-1.61-1.62Z"/><path class="cls-1" d="M44.55,43.3A1.28,1.28,0,1,1,45.82,42,1.28,1.28,0,0,1,44.55,43.3Zm0-2a.78.78,0,1,0,.77.77A.78.78,0,0,0,44.55,41.25Z"/><path class="cls-1" d="M46.69,39.52l.36.35-1.62,1.61-.35-.35Z"/><path class="cls-1" d="M43.77,42.45l.35.35L42.5,44.42l-.35-.35Z"/><path class="cls-1" d="M45.3,42.45l1.61,1.62-.35.35L44.94,42.8Z"/><path class="cls-1" d="M42.37,39.52,44,41.14l-.35.35L42,39.87Z"/><path class="cls-1" d="M57.24,43.3A1.28,1.28,0,1,1,58.51,42,1.28,1.28,0,0,1,57.24,43.3Zm0-2A.78.78,0,1,0,58,42,.78.78,0,0,0,57.24,41.25Z"/><path class="cls-1" d="M59.38,39.52l.36.35-1.62,1.62-.36-.36Z"/><path class="cls-1" d="M56.46,42.45l.35.36-1.63,1.6-.35-.35Z"/><path class="cls-1" d="M58,42.45l1.62,1.62-.35.35L57.63,42.8Z"/><path class="cls-1" d="M55.05,39.52l1.62,1.61-.35.36L54.7,39.87Z"/><path class="cls-1" d="M69.92,43.3A1.28,1.28,0,1,1,71.19,42,1.27,1.27,0,0,1,69.92,43.3Zm0-2a.78.78,0,0,0,0,1.55.78.78,0,1,0,0-1.55Z"/><path class="cls-1" d="M72.07,39.52l.35.35-1.61,1.62-.36-.36Z"/><path class="cls-1" d="M69.14,42.45l.35.35-1.62,1.62-.35-.36Z"/><path class="cls-1" d="M70.67,42.45l1.62,1.62-.35.35L70.32,42.8Z"/><path class="cls-1" d="M67.74,39.52l1.61,1.61-.35.36-1.61-1.62Z"/><path class="cls-1" d="M31.86,53.69a1.28,1.28,0,1,1,1.27-1.27A1.27,1.27,0,0,1,31.86,53.69Zm0-2a.78.78,0,0,0-.78.78.77.77,0,0,0,.78.77.78.78,0,0,0,0-1.55Z"/><path class="cls-1" d="M34,49.91l.36.35-1.62,1.62-.35-.35Z"/><path class="cls-1" d="M31.08,52.84l.35.36-1.62,1.61-.35-.35Z"/><path class="cls-1" d="M32.61,52.84l1.62,1.62-.36.35L32.26,53.2Z"/><path class="cls-1" d="M29.68,49.91l1.62,1.62-.36.35-1.62-1.62Z"/><path class="cls-1" d="M44.55,53.69a1.28,1.28,0,1,1,1.27-1.27A1.27,1.27,0,0,1,44.55,53.69Zm0-2a.78.78,0,0,0-.78.78.78.78,0,1,0,.78-.78Z"/><path class="cls-1" d="M46.69,49.91l.36.35-1.62,1.62-.35-.35Z"/><path class="cls-1" d="M43.77,52.84l.35.36L42.5,54.81l-.35-.35Z"/><path class="cls-1" d="M45.3,52.84l1.62,1.62-.36.35-1.62-1.62Z"/><path class="cls-1" d="M42.37,49.91,44,51.53l-.35.35L42,50.27Z"/><path class="cls-1" d="M57.24,53.69a1.28,1.28,0,1,1,1.27-1.27A1.27,1.27,0,0,1,57.24,53.69Zm0-2a.78.78,0,0,0-.78.78.78.78,0,1,0,.78-.78Z"/><path class="cls-1" d="M59.38,49.91l.35.35-1.61,1.63-.36-.36Z"/><path class="cls-1" d="M56.46,52.85l.35.35-1.63,1.61-.35-.36Z"/><path class="cls-1" d="M58,52.84l1.62,1.62-.35.35L57.63,53.2Z"/><path class="cls-1" d="M55.05,49.91l1.62,1.62-.36.35L54.7,50.26Z"/><path class="cls-1" d="M69.92,53.69a1.28,1.28,0,1,1,1.27-1.27A1.27,1.27,0,0,1,69.92,53.69Zm0-2a.77.77,0,0,0-.77.78.76.76,0,0,0,.77.77.77.77,0,0,0,.78-.77A.78.78,0,0,0,69.92,51.64Z"/><path class="cls-1" d="M72.07,49.91l.35.35-1.61,1.63-.36-.36Z"/><path class="cls-1" d="M69.14,52.84l.35.35-1.62,1.62-.35-.35Z"/><path class="cls-1" d="M70.67,52.84l1.62,1.62-.35.35L70.32,53.2Z"/><path class="cls-1" d="M67.74,49.91l1.61,1.62-.35.35-1.61-1.62Z"/><path class="cls-1" d="M31.86,64.09a1.28,1.28,0,1,1,1.27-1.27A1.27,1.27,0,0,1,31.86,64.09Zm0-2.05a.77.77,0,1,0,0,1.54.77.77,0,0,0,0-1.54Z"/><path class="cls-1" d="M34,60.31l.35.35-1.61,1.61-.36-.35Z"/><path class="cls-1" d="M31.07,63.23l.35.35L29.81,65.2l-.35-.35Z"/><path class="cls-1" d="M32.61,63.24l1.62,1.61-.36.35-1.61-1.61Z"/><path class="cls-1" d="M29.68,60.31l1.62,1.61-.36.36-1.61-1.62Z"/><path class="cls-1" d="M44.55,64.09a1.28,1.28,0,1,1,1.27-1.27A1.27,1.27,0,0,1,44.55,64.09Zm0-2.05a.77.77,0,1,0,.77.77A.77.77,0,0,0,44.55,62Z"/><path class="cls-1" d="M46.69,60.31l.36.35-1.62,1.61-.35-.35Z"/><path class="cls-1" d="M43.76,63.24l.35.35L42.5,65.21l-.36-.35Z"/><path class="cls-1" d="M45.3,63.24l1.62,1.62-.36.35-1.62-1.62Z"/><path class="cls-1" d="M42.37,60.31,44,61.93l-.35.35L42,60.66Z"/><path class="cls-1" d="M57.24,64.09a1.28,1.28,0,1,1,1.27-1.27A1.27,1.27,0,0,1,57.24,64.09Zm0-2.05a.77.77,0,1,0,.77.77A.77.77,0,0,0,57.24,62Z"/><path class="cls-1" d="M59.38,60.31l.36.35-1.62,1.62-.36-.36Z"/><path class="cls-1" d="M56.45,63.24l.35.35L55.17,65.2l-.35-.35Z"/><path class="cls-1" d="M58,63.24l1.62,1.62-.35.35-1.62-1.62Z"/><path class="cls-1" d="M55.05,60.31l1.62,1.61-.35.36L54.7,60.66Z"/><path class="cls-1" d="M69.92,64.09a1.28,1.28,0,1,1,1.27-1.27A1.27,1.27,0,0,1,69.92,64.09Zm0-2.05a.77.77,0,1,0,0,1.54.77.77,0,1,0,0-1.54Z"/><path class="cls-1" d="M72.07,60.31l.35.35-1.61,1.62-.36-.36Z"/><path class="cls-1" d="M69.13,63.23l.36.36-1.62,1.62-.35-.35Z"/><path class="cls-1" d="M70.67,63.24l1.62,1.62-.35.35-1.62-1.62Z"/><path class="cls-1" d="M67.74,60.31l1.61,1.62-.35.35-1.61-1.62Z"/></g></svg>