<svg xmlns="http://www.w3.org/2000/svg" viewBox="0 0 100 100"><defs><style>.cls-1{fill:#539ed0;}</style></defs><title>0022</title><g id="Layer_2" data-name="Layer 2"><path class="cls-1" d="M58.34,35.92A14.64,14.64,0,0,1,70.79,50.77a29.27,29.27,0,0,1-1.07,7.45,28.64,28.64,0,0,1-8.35,13.84,10.36,10.36,0,0,1-8.78,2.5c-1.38-.22-2.71-.64-4-1a2.07,2.07,0,0,0-.86,0l-3,.8a10.72,10.72,0,0,1-9.47-2.13,20.51,20.51,0,0,1-2.82-2.93,29,29,0,0,1-5.7-10.69,28.32,28.32,0,0,1-1.12-6.6,17.71,17.71,0,0,1,.11-4,14.3,14.3,0,0,1,4.74-8.57,15,15,0,0,1,11.38-3.61,27.85,27.85,0,0,1,4.74.74c.26,0,.32,0,.32-.27a7,7,0,0,0-.21-1.75,8.1,8.1,0,0,0-3.94-5.32c-.43-.27-.43-.27-.21-.75s.58-1.12.8-1.7a.31.31,0,0,1,.47-.16,12.07,12.07,0,0,1,1.12.69,10.7,10.7,0,0,1,3.46,3.94c.16.26.21.26.37,0a7.76,7.76,0,0,1,1-1.23,12,12,0,0,1,8.52-3.67,14.09,14.09,0,0,1,5.53,1.23c.21.1.21.21.11.37a16.55,16.55,0,0,1-3.09,3.78,12,12,0,0,1-7.45,2.82A11.27,11.27,0,0,1,49.6,34c-.16-.06-.32-.11-.26.16a7.48,7.48,0,0,1,.21,2.18c0,.21.05.21.27.16a26,26,0,0,1,6.65-.8c.32,0,1.12.11,1.87.21ZM38.65,41.25A9,9,0,0,0,33.27,44a8.87,8.87,0,0,0-2.5,5.91,1.37,1.37,0,0,0,.59,1.44,1.39,1.39,0,0,0,1.43.16,1.37,1.37,0,0,0,.75-1.23,5.59,5.59,0,0,1,.37-2.07A6.45,6.45,0,0,1,40,43.91a1.33,1.33,0,0,0,1.33-1.12,1.43,1.43,0,0,0-1-1.6,3.73,3.73,0,0,0-.74,0,6.34,6.34,0,0,0-1,.11Z"/></g></svg>