<svg xmlns="http://www.w3.org/2000/svg" viewBox="0 0 100 100"><defs><style>.cls-1{fill:#539ed0;}</style></defs><title>0023</title><g id="Layer_2" data-name="Layer 2"><path class="cls-1" d="M76.83,49.84l-8.17-7.48V29.92a1.78,1.78,0,0,0-1.73-1.73H62.44a1.78,1.78,0,0,0-1.73,1.73V35L51.5,26.47a2.29,2.29,0,0,0-3.11,0L23.05,49.84a2.28,2.28,0,0,0,3.11,3.34L49.89,31.3l23.72,22a2.33,2.33,0,0,0,3.22-.12,2.37,2.37,0,0,0,0-3.34Z"/><path class="cls-1" d="M49.89,34.41,27.54,55v21.9H38.4V59.09h9.73V76.93H72.23V55C72.11,55,49.89,34.41,49.89,34.41ZM63.08,68.2H53.72V58.84h9.36Z"/><polygon class="cls-1" points="49.89 34.41 49.89 34.41 49.89 34.41 49.89 34.41"/></g></svg>