<svg xmlns="http://www.w3.org/2000/svg" viewBox="0 0 100 100"><defs><style>.cls-1{fill:#539ed0;}</style></defs><title>0024</title><g id="Layer_2" data-name="Layer 2"><path class="cls-1" d="M41,55a5.79,5.79,0,1,1-5.78-5.78A5.78,5.78,0,0,1,41,55"/><path class="cls-1" d="M61.9,48.58H45.22a2.14,2.14,0,0,0-2.1,2.1v12.2H27.29V45.29a.62.62,0,0,0-.62-.62H22.93a.63.63,0,0,0-.63.62V73.37a.63.63,0,0,0,.63.63h3.74a.63.63,0,0,0,.63-.63v-5.5H71.15v5.5a.63.63,0,0,0,.62.63h3.75a.63.63,0,0,0,.62-.63V62.88A14.22,14.22,0,0,0,61.9,48.58Z"/><path class="cls-1" d="M36.26,45.58h6.58a.88.88,0,0,0,.85-.85V43.25a.88.88,0,0,0-.85-.85h-3l3.57-6.64a1,1,0,0,0-.9-1.53H36.43a.87.87,0,0,0-.85.85v1.48a.87.87,0,0,0,.85.85h2.49l-3.57,6.64a1,1,0,0,0,.91,1.53Z"/><path class="cls-1" d="M46.52,38.6h5.11a.69.69,0,0,0,.68-.68V36.78a.69.69,0,0,0-.68-.68H49.3l2.78-5.16a.81.81,0,0,0-.68-1.19H46.69a.69.69,0,0,0-.68.68v1.13a.69.69,0,0,0,.68.68h1.93l-2.78,5.17a.81.81,0,0,0,.68,1.19Z"/><path class="cls-1" d="M55,33.21h4.14a.51.51,0,0,0,.51-.51v-.91a.51.51,0,0,0-.51-.51H57.25l2.27-4.14a.64.64,0,0,0-.57-1h-3.8a.5.5,0,0,0-.51.5v.91a.51.51,0,0,0,.51.51h1.53l-2.27,4.15a.67.67,0,0,0,.57,1Z"/></g></svg>