<svg xmlns="http://www.w3.org/2000/svg" viewBox="0 0 100 100"><defs><style>.cls-1{fill:#539ed0;stroke:#539ed0;stroke-miterlimit:10;stroke-width:0.5px;}</style></defs><title>0025</title><g id="Layer_2" data-name="Layer 2"><path class="cls-1" d="M83.06,56.79a8.23,8.23,0,0,0-1.89-5.26h0L70.29,37a5.21,5.21,0,0,0-.6-.8l-.1-.13-.12-.13a5.81,5.81,0,0,0-10,4.08,6.33,6.33,0,0,0,.13,1.15H24.89a.68.68,0,0,0-.62.41L14.59,64.1a.69.69,0,0,0,.05.64.71.71,0,0,0,.57.3H75.35c.05,0,.08,0,.12,0a8.25,8.25,0,0,0,7.59-8.22ZM74.81,63.7a7.71,7.71,0,0,1-1.28-.13l-.43-.11a6.12,6.12,0,0,1-.76-.24L71.86,63a4.82,4.82,0,0,1-.63-.35c-.15-.09-.3-.18-.44-.28s-.39-.31-.57-.47-.25-.21-.37-.33a7.08,7.08,0,0,1-.59-.72,5.35,5.35,0,0,1-.36-.56,6.8,6.8,0,0,1-.38-.7A6.32,6.32,0,0,1,68.3,59a6.17,6.17,0,0,1-.19-.61c0-.14-.06-.28-.09-.43a6.45,6.45,0,0,1-.12-1.17A6.88,6.88,0,0,1,76.11,50l.14,0a7.32,7.32,0,0,1,1.15.36l.17.07c.08,0,.15.09.23.12a7.18,7.18,0,0,0-1-.1,6.31,6.31,0,1,0,0,12.62,6,6,0,0,0,1-.1,6.89,6.89,0,0,1-3,.71Zm1.94-2a5,5,0,1,1,5-5,5,5,0,0,1-5,5ZM65.34,35.54a4.44,4.44,0,0,1,3.23,1.4l0,0,.06.08a4.21,4.21,0,0,1,.52.71L77.61,49l-.11,0a7.69,7.69,0,0,0-1.19-.31l-.2,0a8.08,8.08,0,0,0-1.31-.12,8.43,8.43,0,0,0-1.33.12l-.19,0a9.47,9.47,0,0,0-1.19.32l-.22.08a8.52,8.52,0,0,0-1.1.52l-.16.09a8.07,8.07,0,0,0-1,.71s0,0,0,0a7.4,7.4,0,0,0-.9.87l-.13.14a9.64,9.64,0,0,0-.71,1l-.12.2a7.26,7.26,0,0,0-.54,1.08,1.22,1.22,0,0,0-.07.17,8.05,8.05,0,0,0-.36,1.21s0,0,0,0l-5.1-12.52a.7.7,0,0,0-.08-.2,4.2,4.2,0,0,1-.37-.77h0A4.3,4.3,0,0,1,60.86,40a4.49,4.49,0,0,1,4.48-4.49Zm5,28.15H16.23l9.1-21.18H60.1c.07.16.15.29.22.43a0,0,0,0,1,0,0h0l6.51,16h0a8.27,8.27,0,0,0,.52,1.39l0,.07a8.18,8.18,0,0,0,.73,1.2.86.86,0,0,1,.07.1,9.75,9.75,0,0,0,.91,1l.08.07a8.41,8.41,0,0,0,1.1.87Z"/></g></svg>