<svg xmlns="http://www.w3.org/2000/svg" viewBox="0 0 100 100"><defs><style>.cls-1{fill:#539ed0;}</style></defs><title>0026</title><g id="Layer_2" data-name="Layer 2"><path class="cls-1" d="M38.25,23.42c-.79.17-1.48.39-2.17.58a1.17,1.17,0,0,0-.83,1.05v1.31l-.25.17-1.26-.31a1.17,1.17,0,0,0-1.25.52l-1,1.77a1.15,1.15,0,0,0,.18,1.33l.89.94,0,.32-1.12.66A1.14,1.14,0,0,0,30.87,33l.52,2a1.18,1.18,0,0,0,1.07.84h1.32L34,36l-.31,1.26a1.16,1.16,0,0,0,.52,1.26l1.76,1a1.15,1.15,0,0,0,1.33-.16l1-.9.32,0,.66,1.12a1.17,1.17,0,0,0,1.25.51l2-.53a1.14,1.14,0,0,0,.84-1.06v-1.3l.25-.19,1.28.31A1.16,1.16,0,0,0,46,36.88l1-1.75a1.15,1.15,0,0,0-.17-1.35L46,32.86l0-.3,1.14-.68a1.15,1.15,0,0,0,.51-1.26l-.54-1.95A1.16,1.16,0,0,0,46,27.83l-1.3,0-.2-.25.32-1.25a1.16,1.16,0,0,0-.53-1.25l-1.75-1a1.15,1.15,0,0,0-1.35.16l-.93.9-.3-.05L39.31,24a1.61,1.61,0,0,0-1.06-.54Zm-.44,2.43.51.84a1.15,1.15,0,0,0,1,.54,4.74,4.74,0,0,1,1.14.16,1.15,1.15,0,0,0,1-.28l.7-.68.3.16-.24,1a1.12,1.12,0,0,0,.29,1.06,5.33,5.33,0,0,1,.71.91,1.11,1.11,0,0,0,.93.52l1,0,.09.33-.85.49a1.15,1.15,0,0,0-.54,1A4.15,4.15,0,0,1,43.69,33,1.14,1.14,0,0,0,44,34l.7.71L44.5,35l-1-.24a1.13,1.13,0,0,0-1.07.3,4.56,4.56,0,0,1-.89.68,1.14,1.14,0,0,0-.55,1v1l-.34.1-.5-.85a1.13,1.13,0,0,0-1-.54,4.27,4.27,0,0,1-1.11-.14,1.13,1.13,0,0,0-1.07.26l-.73.7L36,37l.25-.94A1.13,1.13,0,0,0,36,35a4.53,4.53,0,0,1-.68-.9,1.13,1.13,0,0,0-.95-.55l-1,0-.09-.33.86-.51a1.15,1.15,0,0,0,.55-.94,4.45,4.45,0,0,1,.14-1.14,1.17,1.17,0,0,0-.28-1l-.69-.72L34,28.6l.94.24A1.13,1.13,0,0,0,36,28.55a5.83,5.83,0,0,1,.92-.7,1.14,1.14,0,0,0,.52-.93l0-1,.33-.08Zm1.44,2.6a3.36,3.36,0,1,0,3.37,3.36A3.39,3.39,0,0,0,39.25,28.45Zm11.8.79a19,19,0,0,0-3.15.25l.29,1A1.73,1.73,0,0,1,48,31.74a17.32,17.32,0,0,1,3-.26c6.29,0,11.2,1.41,14.28,4.23s4.55,7.12,3.7,13.52a1.13,1.13,0,0,0,.19.8,33.28,33.28,0,0,1,3.9,6.56c-.41,0-.87,0-1.3,0a1.16,1.16,0,0,0-1.12,1.15,35.83,35.83,0,0,1,0,3.74l-.51.26a1.15,1.15,0,0,0-.62,1,18,18,0,0,1-.87,5.65c-2.92.35-5.65-.61-8.48-.55a1.15,1.15,0,0,0-1,.82,20.47,20.47,0,0,0-.36,8.62H40.31a39.6,39.6,0,0,0,2.8-14.45,1.15,1.15,0,0,0-.31-.79c-2.28-2.35-4.47-4.53-5.88-7.57a1.7,1.7,0,0,1-1.26.2l-.83-.21v.68a28.66,28.66,0,0,0,6,8.07A37.62,37.62,0,0,1,37.66,78a1.18,1.18,0,0,0,1,1.56H60.06a1.17,1.17,0,0,0,1.11-1.3,19.84,19.84,0,0,1,0-8c2.9.13,5.9.9,8.65.38a1.14,1.14,0,0,0,.84-.75,24,24,0,0,0,1.18-6.36l.51-.27a1.1,1.1,0,0,0,.61-.92,24.74,24.74,0,0,0,0-3.48A3.52,3.52,0,0,0,75.42,58a1.12,1.12,0,0,0,.29-1C75.07,54.39,73,51.39,71.26,49c.76-6.62-.82-11.68-4.41-15C62.54,30.47,56,29.28,51,29.24Zm-11.8,1.45a1.12,1.12,0,1,1-1.12,1.12A1.11,1.11,0,0,1,39.25,30.69Zm8.81,6.78-2.72.74a1.13,1.13,0,0,0-.82,1l0,2a8.32,8.32,0,0,0-.68.53l-1.93-.49a1.15,1.15,0,0,0-1.25.52l-1.4,2.43a1.15,1.15,0,0,0,.16,1.33L40.76,47c0,.28-.08.57-.1.86l-1.74,1a1.16,1.16,0,0,0-.49,1.24l.72,2.72a1.14,1.14,0,0,0,1.05.82l2,0a6.45,6.45,0,0,0,.51.66l-.5,1.94a1.18,1.18,0,0,0,.53,1.25L45.2,59a1.16,1.16,0,0,0,1.34-.16L48,57.43c.29,0,.57.06.86.08l1,1.73a1.14,1.14,0,0,0,1.24.53L53.89,59A1.13,1.13,0,0,0,54.71,58l0-2a8.11,8.11,0,0,0,.65-.51l2,.51a1.17,1.17,0,0,0,1.25-.52L60,53a1.15,1.15,0,0,0-.16-1.33l-1.42-1.45a7.72,7.72,0,0,0,.12-.84l1.74-1a1.15,1.15,0,0,0,.51-1.26l-.75-2.72A1.14,1.14,0,0,0,59,43.54l-2,0c-.16-.23-.34-.44-.52-.66L57,40.9a1.15,1.15,0,0,0-.55-1.24L54,38.26a1.15,1.15,0,0,0-1.35.16L51.2,39.81c-.28-.05-.56-.09-.86-.12l-1-1.71a1.06,1.06,0,0,0-1.25-.51Zm-.23,2.38.88,1.45a1.18,1.18,0,0,0,.95.54,7.14,7.14,0,0,1,1.68.23,1.18,1.18,0,0,0,1.06-.28l1.19-1.17,1,.56-.4,1.64a1.14,1.14,0,0,0,.28,1.07,7.11,7.11,0,0,1,1,1.32,1.14,1.14,0,0,0,1,.53l1.69,0,.29,1.1L57,47.71a1.13,1.13,0,0,0-.56,1,6.91,6.91,0,0,1-.21,1.65,1.12,1.12,0,0,0,.26,1.06l1.19,1.23-.56,1-1.65-.42a1.14,1.14,0,0,0-1.07.29,6.49,6.49,0,0,1-1.31,1,1.15,1.15,0,0,0-.57,1v1.67l-1.09.28-.86-1.45a1.19,1.19,0,0,0-1-.56,6.23,6.23,0,0,1-1.65-.19,1.15,1.15,0,0,0-1,.26l-1.24,1.19-1-.56.44-1.62a1.13,1.13,0,0,0-.3-1.08,6.93,6.93,0,0,1-1-1.3,1.14,1.14,0,0,0-1-.56l-1.7,0-.3-1.09,1.47-.87a1.16,1.16,0,0,0,.55-1A6.69,6.69,0,0,1,43,46.89a1.17,1.17,0,0,0-.28-1l-1.16-1.21.56-1,1.61.41a1.16,1.16,0,0,0,1.07-.3,7.7,7.7,0,0,1,1.36-1,1.14,1.14,0,0,0,.52-.91l0-1.69,1.08-.3Zm-18.77.38c-.65.19-1.31.37-2,.54a1.15,1.15,0,0,0-.82,1l0,1.31-.24.18L24.74,43a1.16,1.16,0,0,0-1.24.53l-1,1.76a1.15,1.15,0,0,0,.18,1.33l.89,1c0,.1,0,.21,0,.31l-1.13.66a1.17,1.17,0,0,0-.51,1.25l.53,1.95a1.16,1.16,0,0,0,1.07.84l1.32,0,.17.23-.31,1.25a1.14,1.14,0,0,0,.52,1.26l1.76,1a1.15,1.15,0,0,0,1.33-.16l.95-.91.31,0,.67,1.11a1.17,1.17,0,0,0,1.25.51l2-.52a1.16,1.16,0,0,0,.84-1.07V54.06c.09-.06.16-.13.25-.2l1.28.32A1.14,1.14,0,0,0,37,53.65l1-1.74a1.15,1.15,0,0,0-.18-1.35L37,49.63a2.89,2.89,0,0,0,0-.29l1.14-.68a1.15,1.15,0,0,0,.51-1.26l-.55-2A1.16,1.16,0,0,0,37,44.6l-1.3,0-.19-.24.32-1.26a1.14,1.14,0,0,0-.53-1.24l-1.75-1a1.18,1.18,0,0,0-1.36.16l-.92.91-.3,0-.69-1.12a1.09,1.09,0,0,0-1.26-.51Zm-.23,2.39.51.84a1.15,1.15,0,0,0,1,.54,4.81,4.81,0,0,1,1.14.16,1.16,1.16,0,0,0,1.05-.28l.7-.68.3.16-.25,1a1.18,1.18,0,0,0,.3,1.07,4.85,4.85,0,0,1,.7.9,1.15,1.15,0,0,0,.93.53l1,0,.08.33-.84.49a1.12,1.12,0,0,0-.54,1,5,5,0,0,1-.16,1.11A1.14,1.14,0,0,0,35,50.8l.7.72-.17.28-1-.25a1.15,1.15,0,0,0-1.07.3,4.56,4.56,0,0,1-.89.68,1.13,1.13,0,0,0-.55,1l0,1-.33.11-.51-.86a1.14,1.14,0,0,0-.95-.54,4.19,4.19,0,0,1-1.1-.14,1.16,1.16,0,0,0-1.07.26l-.74.7L27,53.8l.25-.94A1.15,1.15,0,0,0,27,51.8a4.83,4.83,0,0,1-.69-.89,1.1,1.1,0,0,0-.94-.56l-1,0L24.27,50l.86-.51a1.11,1.11,0,0,0,.54-.94,5.55,5.55,0,0,1,.14-1.14,1.12,1.12,0,0,0-.28-1l-.68-.72.17-.29.95.24A1.13,1.13,0,0,0,27,45.32a4.75,4.75,0,0,1,.91-.7,1.15,1.15,0,0,0,.53-.93l0-1,.33-.09ZM49.62,43a5.59,5.59,0,1,0,5.62,5.59A5.62,5.62,0,0,0,49.62,43ZM30.27,45.23a3.36,3.36,0,1,0,3.37,3.35A3.37,3.37,0,0,0,30.27,45.23Zm19.35,0a3.36,3.36,0,1,1-3.36,3.36A3.34,3.34,0,0,1,49.62,45.24ZM30.27,47.46a1.12,1.12,0,1,1-1.12,1.12A1.11,1.11,0,0,1,30.27,47.46Z"/></g></svg>