<svg xmlns="http://www.w3.org/2000/svg" viewBox="0 0 100 100"><defs><style>.cls-1{fill:#539ed0;}</style></defs><title>0027</title><g id="Layer_2" data-name="Layer 2"><path class="cls-1" d="M76.83,48.45,68.66,41V28.53a1.77,1.77,0,0,0-1.73-1.73H62.44a1.77,1.77,0,0,0-1.73,1.73v5.06L51.5,25.07a2.32,2.32,0,0,0-3.11,0L23.05,48.45a2.28,2.28,0,0,0,3.11,3.34L49.89,29.91l23.72,22a2.32,2.32,0,0,0,3.22-.11,2.37,2.37,0,0,0,0-3.34Z"/><path class="cls-1" d="M58.43,74.32a.87.87,0,1,0-.87.87A.87.87,0,0,0,58.43,74.32Z"/><path class="cls-1" d="M51.1,65.72H49.81l-.14,9.51a1,1,0,0,1-.07.3h6.47a1.92,1.92,0,0,1,1.49-3.14,1.93,1.93,0,0,1,1.93,1.93,1.91,1.91,0,0,1-.44,1.21h4.69a1.91,1.91,0,0,1-.44-1.21,1.93,1.93,0,0,1,.43-1.22l-.88-1.24H58.64a2,2,0,0,1-2-2V63.16s0,0,0-.07l-1.94-2.73a1,1,0,0,0-.4-.33,1,1,0,0,1-1.72.59l-.12.09a.53.53,0,0,1-.6-.88l.22-.15c-.57-1.3-1.49-3.44-1.88-4.37a.12.12,0,0,0-.1-.06.1.1,0,0,0-.09.11l1.65,9.74A.52.52,0,0,1,51.1,65.72Z"/><path class="cls-1" d="M66.1,74.32a.87.87,0,1,0-.87.87A.87.87,0,0,0,66.1,74.32Z"/><path class="cls-1" d="M49.89,33,27.54,53.63v21.9H44a.78.78,0,0,1-.07-.3l-.14-9.51H42.48A.52.52,0,0,1,42,65.1l1.65-9.74a.1.1,0,0,0-.1-.11.11.11,0,0,0-.09.06c-.47,1.1-1.66,3.87-2.15,5a1,1,0,0,1-1.91-.71l3-7.82c.32-.75.81-1.94,4.4-2s4.07,1.22,4.4,2L54,58.87a2.06,2.06,0,0,1,1.59.88l2.9,4.09a1.76,1.76,0,0,1,1-.33,1.74,1.74,0,0,1,1.73,1.73,1.71,1.71,0,0,1-.73,1.4l2.72,3.83,1.19.25a.94.94,0,0,0,.63-.28.53.53,0,0,1,.75.75,2,2,0,0,1-1.43.6h-.12l-.1,0,.52.74a1.9,1.9,0,0,1,.63-.11h0a2,2,0,0,1,1.94,1.94,1.86,1.86,0,0,1-.45,1.21h5.51V53.63C72.11,53.63,49.89,33,49.89,33Zm-3.1,16.22a2.69,2.69,0,1,1,2.68-2.68A2.68,2.68,0,0,1,46.79,49.24Z"/><path class="cls-1" d="M47.05,65.72h-.52l-.43,9.6a.86.86,0,0,1-.07.21h1.51a1.66,1.66,0,0,1-.06-.21Z"/></g></svg>