<svg xmlns="http://www.w3.org/2000/svg" viewBox="0 0 100 100"><defs><style>.cls-1{fill:#539ed0;}</style></defs><title>0028</title><g id="Layer_2" data-name="Layer 2"><path class="cls-1" d="M69.48,45.9H67.76L66.3,33.39a3.54,3.54,0,0,0-3-3L58.4,29.6A67.09,67.09,0,0,0,49,29a61.1,61.1,0,0,0-9.42.66l-4.86.76a3.53,3.53,0,0,0-3,3L30.28,45.9H28.56a1.63,1.63,0,0,0-1.62,1.62v4.36a1.63,1.63,0,0,0,1.62,1.62h1.07V67.08a3.59,3.59,0,0,0,2,3.19v4.35a2.55,2.55,0,0,0,2.53,2.54h2a2.54,2.54,0,0,0,2.53-2.54v-4H59.35v4a2.55,2.55,0,0,0,2.54,2.54h2a2.54,2.54,0,0,0,2.53-2.54V70.27a3.53,3.53,0,0,0,2-3.19V53.45h1.06a1.63,1.63,0,0,0,1.62-1.62V47.48a1.51,1.51,0,0,0-1.57-1.58Zm-25.07-14h9.22a1.12,1.12,0,0,1,0,2.23H44.41a1.12,1.12,0,0,1,0-2.23ZM39.5,64.24A3.24,3.24,0,1,1,42.74,61,3.23,3.23,0,0,1,39.5,64.24Zm19,0A3.24,3.24,0,1,1,61.79,61,3.23,3.23,0,0,1,58.55,64.24ZM35.35,51.48l1.72-14.54H61L62.7,51.48Z"/></g></svg>