<svg xmlns="http://www.w3.org/2000/svg" viewBox="0 0 100 100"><defs><style>.cls-1{fill:#539ed0;}</style></defs><title>0030</title><g id="Layer_2" data-name="Layer 2"><path class="cls-1" d="M71.68,64a62.82,62.82,0,0,1-6.11,1.47,7,7,0,0,1-5,2.94,10.92,10.92,0,0,1-2,.11,51.64,51.64,0,0,1-6-.5c-.17,0-.34-.06-.51-.06a1.08,1.08,0,0,1-1-1.19,1.11,1.11,0,0,1,1.24-1c.17,0,.34.06.51.06a35.7,35.7,0,0,0,7.42.39c3.22-.5,4.18-2.43,4-4.07a2.63,2.63,0,0,0-2.65-2.6,57.4,57.4,0,0,1-7.47-.4,40.75,40.75,0,0,0-8.15-.28,26.92,26.92,0,0,0-5.44,1.81c-.5.22-1,.39-1.47.62V75.57c4.36,1.59,9.68,3.28,12.85,3.57,6.39.51,18.95-6.74,22.57-9.12s1.19-7.35-2.77-6Z"/><path class="cls-1" d="M35.29,58.76H27.88a1.5,1.5,0,0,0-1.47,1.48V76.53A1.5,1.5,0,0,0,27.88,78H35.3a1.5,1.5,0,0,0,1.47-1.48V60.24a1.5,1.5,0,0,0-1.48-1.48Z"/><path class="cls-1" d="M52.33,52.88,65,40.2A8.68,8.68,0,0,0,52.72,27.92l-1.41,1.42-1.47-1.42a8.62,8.62,0,0,0-6.12-2.54,8.65,8.65,0,0,0-6,14.93L50.29,52.88a1.43,1.43,0,0,0,2,0Z"/></g></svg>