<svg xmlns="http://www.w3.org/2000/svg" viewBox="0 0 100 100"><defs><style>.cls-1{fill:#539ed0;}</style></defs><title>0031</title><g id="Layer_2" data-name="Layer 2"><path class="cls-1" d="M70.71,60.21a62.42,62.42,0,0,1-6.12,1.47,7,7,0,0,1-5,2.94,11,11,0,0,1-2,.11,51.8,51.8,0,0,1-6.06-.5c-.17,0-.34-.06-.51-.06a1.1,1.1,0,0,1-1-1.19,1.11,1.11,0,0,1,1.25-1c.17,0,.34.06.51.06a35.6,35.6,0,0,0,7.41.39c3.23-.51,4.19-2.43,4-4.07a2.65,2.65,0,0,0-2.66-2.61,57.5,57.5,0,0,1-7.47-.39A40.73,40.73,0,0,0,45,55.06a26.87,26.87,0,0,0-5.43,1.81c-.51.22-1,.39-1.47.62V71.75c4.35,1.58,9.67,3.28,12.84,3.57,6.4.5,19-6.74,22.58-9.12s1.19-7.35-2.77-6Z"/><path class="cls-1" d="M34.32,54.94H26.91a1.5,1.5,0,0,0-1.48,1.47v16.3a1.5,1.5,0,0,0,1.48,1.48h7.41a1.5,1.5,0,0,0,1.47-1.48V56.41a1.5,1.5,0,0,0-1.47-1.47Z"/><path class="cls-1" d="M51.35,49.06,64,36.38a8.68,8.68,0,0,0-6.11-14.82,8.59,8.59,0,0,0-6.17,2.54l-1.42,1.42L48.86,24.1a8.6,8.6,0,0,0-6.11-2.55,8.66,8.66,0,0,0-6,14.94L49.31,49.06a1.45,1.45,0,0,0,2,0Z"/></g></svg>