<svg xmlns="http://www.w3.org/2000/svg" viewBox="0 0 100 100"><defs><style>.cls-1{fill:#539ed0;}</style></defs><title>0032</title><g id="Layer_2" data-name="Layer 2"><path class="cls-1" d="M51.37,24.57A13.55,13.55,0,1,0,64.9,38.12,13.56,13.56,0,0,0,51.37,24.57Zm0,12a4.71,4.71,0,0,1,4.8,4.8A4.66,4.66,0,0,1,53,45.8v1.92h-3.2V45.8a4.66,4.66,0,0,1-3.2-4.48h3.2a1.6,1.6,0,1,0,1.6-1.6,4.72,4.72,0,0,1-4.8-4.81,4.66,4.66,0,0,1,3.2-4.48V28.51H53v1.92a4.66,4.66,0,0,1,3.2,4.48H53a1.6,1.6,0,1,0-1.6,1.61Z"/><path class="cls-1" d="M69.11,61.85A60,60,0,0,1,63,63.32a7,7,0,0,1-5,2.95,10.92,10.92,0,0,1-2,.11,51.85,51.85,0,0,1-6-.51c-.17,0-.34-.06-.51-.06a1.07,1.07,0,0,1-1-1.19,1.11,1.11,0,0,1,1.24-1c.17,0,.34.06.51.06a35.81,35.81,0,0,0,7.42.4c3.22-.51,4.18-2.44,4-4.08A2.64,2.64,0,0,0,59,57.38a57.34,57.34,0,0,1-7.46-.4,41.52,41.52,0,0,0-8.15-.28,27.57,27.57,0,0,0-5.44,1.81c-.5.23-1,.4-1.47.63V73.4C40.82,75,46.14,76.68,49.3,77c6.4.51,19-6.73,22.58-9.11s1.19-7.36-2.77-6Z"/><path class="cls-1" d="M32.72,56.59H25.31a1.5,1.5,0,0,0-1.47,1.47v16.3a1.5,1.5,0,0,0,1.47,1.47h7.41a1.5,1.5,0,0,0,1.48-1.47V58.06a1.49,1.49,0,0,0-1.47-1.47Z"/></g></svg>