<svg xmlns="http://www.w3.org/2000/svg" viewBox="0 0 100 100"><defs><style>.cls-1{fill:#539ed0;}</style></defs><title>0033</title><g id="Layer_2" data-name="Layer 2"><path class="cls-1" d="M36.46,43a3.53,3.53,0,0,0-2.23,2.3l-5.43,13a6.23,6.23,0,0,0-.6,2.36L26.81,76.52a1.2,1.2,0,0,0,1,1.27l3.08.24a1.2,1.2,0,0,0,1.27-1l2.17-15.8,2.53-5.13c.12,8-1.27,18.52-1.2,19.42.12,1.63.78,2.41,2,2.6a71.6,71.6,0,0,0,10.25.72l.36-19.36L42.13,41.17c-1,.43-4.77,1.51-5.67,1.87Z"/><path class="cls-1" d="M67.88,60.66a7.59,7.59,0,0,0-.6-2.36l-5.43-13A3.07,3.07,0,0,0,59.62,43c-1.33-.48-4.83-1.56-5.79-1.87l-5.31,15.5.9,2.72v.12l-.36,19.42c.72,0,3.62-.12,3.62-.12,1.87-.12,3.68-.3,5.49-.54,1.27-.19,1.93-1,2-2.6.06-.9-1.09-11.28-.91-19.18l2.35,4.77,2.18,15.8a1.11,1.11,0,0,0,1.26,1l3.08-.24a1.16,1.16,0,0,0,1-1.26ZM57,53.06h-4.4V51.55H57Z"/><path class="cls-1" d="M57.39,31A9.35,9.35,0,1,1,48,21.63,9.35,9.35,0,0,1,57.39,31"/><path class="cls-1" d="M50.21,43.59v-.85a1.08,1.08,0,0,0-1.09-1.08H47a1.08,1.08,0,0,0-1.08,1.08v.85A1.08,1.08,0,0,0,47,44.67l-.42,5.91L48,54.93l1.57-4.53-.43-5.79a1,1,0,0,0,1.09-1Z"/></g></svg>