<svg xmlns="http://www.w3.org/2000/svg" viewBox="0 0 100 100"><defs><style>.cls-1{fill:#539ed0;}</style></defs><title>0034</title><g id="Layer_2" data-name="Layer 2"><path class="cls-1" d="M26.62,61.92H38V74.86H26.62Z"/><path class="cls-1" d="M44.36,53.06h11.4V74.87H44.36Z"/><path class="cls-1" d="M62.09,35.33h11.4V74.86H62.09Z"/><path class="cls-1" d="M32.53,41.05a6.76,6.76,0,0,1,6.88,6.88,6.68,6.68,0,0,1-4.59,6.43v2.75H30.24V54.36a6.68,6.68,0,0,1-4.59-6.43h4.59a2.46,2.46,0,0,0,2.29,2.3,2.3,2.3,0,0,0,0-4.59,6.76,6.76,0,0,1-6.88-6.88,6.69,6.69,0,0,1,4.59-6.43V29.58h4.58v2.75a6.69,6.69,0,0,1,4.59,6.43H34.82a2.46,2.46,0,0,0-2.29-2.3,2.3,2.3,0,0,0,0,4.59Z"/></g></svg>