<svg xmlns="http://www.w3.org/2000/svg" viewBox="0 0 100 100"><defs><style>.cls-1{fill:#539ed0;}</style></defs><title>0036</title><g id="Layer_2" data-name="Layer 2"><path class="cls-1" d="M62.36,69.38l.06-.06A23.95,23.95,0,0,0,49.34,25.13h0a24,24,0,1,0,0,48h0a24.81,24.81,0,0,0,3.68-.28c.48,2.11,2.77,8.53,16.69,5-10.89-.91-7.39-8.46-7.39-8.46Zm-13-.75A19.4,19.4,0,1,1,69,49.24,19.54,19.54,0,0,1,49.34,68.63Z"/><path class="cls-1" d="M40.91,34.2a17.58,17.58,0,0,0-3.83,2.68c.42.24.94.52,1.53.82a18.27,18.27,0,0,1,2.3-3.5Z"/><path class="cls-1" d="M37.69,39.76c-.94-.48-1.69-.93-2.19-1.24a16.5,16.5,0,0,0-3.91,9.56H36a26,26,0,0,1,1.67-8.32Z"/><path class="cls-1" d="M36,50.39H31.59A16.5,16.5,0,0,0,35.5,60c.5-.31,1.24-.75,2.19-1.24A26,26,0,0,1,36,50.39Z"/><path class="cls-1" d="M38.61,60.77c-.59.3-1.11.58-1.53.82a17.34,17.34,0,0,0,3.83,2.68,18.27,18.27,0,0,1-2.3-3.5Z"/><path class="cls-1" d="M48.4,66.26V58.07a24.31,24.31,0,0,0-8,1.88C42.34,63.49,45.18,65.87,48.4,66.26Z"/><path class="cls-1" d="M39.47,57.88a25.87,25.87,0,0,1,8.93-2.13V50.4H37.91a23.47,23.47,0,0,0,1.56,7.49Z"/><path class="cls-1" d="M37.91,48.08H48.4V42.73a26.09,26.09,0,0,1-8.93-2.14,23.47,23.47,0,0,0-1.56,7.49Z"/><path class="cls-1" d="M40.42,38.52a24.06,24.06,0,0,0,8,1.88V32.21C45.18,32.61,42.34,35,40.42,38.52Z"/><path class="cls-1" d="M62.67,48.08H67.1a16.57,16.57,0,0,0-3.92-9.56c-.49.31-1.24.76-2.19,1.24a26.29,26.29,0,0,1,1.68,8.32Z"/><path class="cls-1" d="M60.07,37.7c.6-.3,1.11-.58,1.53-.82a17.87,17.87,0,0,0-3.82-2.68,18.24,18.24,0,0,1,2.29,3.5Z"/><path class="cls-1" d="M50.29,32.21V40.4a23.94,23.94,0,0,0,8-1.88c-1.92-3.53-4.76-5.91-8-6.31Z"/><path class="cls-1" d="M59.22,40.59a25.92,25.92,0,0,1-8.93,2.13v5.36H60.77a23.2,23.2,0,0,0-1.55-7.49Z"/><path class="cls-1" d="M60.77,50.39H50.29v5.36a25.92,25.92,0,0,1,8.93,2.13,23.2,23.2,0,0,0,1.55-7.49Z"/><path class="cls-1" d="M50.29,58.07v8.19c3.21-.39,6.05-2.77,8-6.31a24.19,24.19,0,0,0-8-1.88Z"/><path class="cls-1" d="M57.78,64.27A17.48,17.48,0,0,0,61.6,61.6c-.42-.25-.93-.53-1.53-.82a18.47,18.47,0,0,1-2.29,3.49Z"/><path class="cls-1" d="M62.67,50.39A26.29,26.29,0,0,1,61,58.71c.95.48,1.69.93,2.19,1.24a16.57,16.57,0,0,0,3.92-9.56Z"/></g></svg>