<svg xmlns="http://www.w3.org/2000/svg" viewBox="0 0 100 100"><defs><style>.cls-1{fill:#539ed0;}</style></defs><title>0038</title><g id="Layer_2" data-name="Layer 2"><path class="cls-1" d="M65.21,33.26v9.27c2.32-6.49,5.1-7.42,12.28-5.1-1.39,5.33-3.94,15-6.26,19.69-.69.92-1.39,1.16-1.62,2.54C67.3,81.9,26.07,81.2,26.07,57.58V33.72c0-4.17,6.49-4.86,9.5-3.24,1.16-3.47,7.18-3.7,9.73-1.62,2.54-2.78,9.49-2.54,10.65,1.39,2.78-1.39,9.26-.92,9.26,3ZM62.67,51.79A11,11,0,0,0,53.4,62.67c0,1.62-2.31,1.62-2.31.23a11.92,11.92,0,0,1,6.48-11.58,10.59,10.59,0,0,1-2.08-.69c-1.86,2.78-7.18,2.78-9.73.93-2.09,2.08-6.95,2.08-9.27,0-1.62,1.62-5.56,2.08-8.1.92v5.1c0,21.07,37.75,21.3,39.14.92a2.42,2.42,0,0,1,1.16-2.08c2.08-1.39,3.7-8.34,6-17.37-9.73-3-7.41,10.42-12,12.73ZM28.39,49.47c.69,1.86,7,1.86,7-.23V33.72c0-2.31-7-2.31-7,0V49.47Zm16-.69V31.64c-.23-2.55-6.72-2.32-6.72.23V49C37.65,51.32,44.37,51.79,44.37,48.78Zm2.55-16.91V48.78c.23,2.31,6.71,2.31,6.71-.23V31.41c0-2.55-6.71-3.24-6.71.46Zm16,15.75V33.26c0-1.86-6.95-1.86-6.95,0V47.62C56,49.7,62.9,49.7,62.9,47.62Z"/></g></svg>