<svg xmlns="http://www.w3.org/2000/svg" viewBox="0 0 100 100"><defs><style>.cls-1{fill:#539ed0;}</style></defs><title>0040</title><g id="Layer_2" data-name="Layer 2"><path class="cls-1" d="M62.36,69.62l.06-.06A23.94,23.94,0,0,0,49.34,25.38h0a24,24,0,1,0,0,48h0a23.53,23.53,0,0,0,3.68-.28c.48,2.11,2.77,8.53,16.69,5-10.89-.91-7.39-8.46-7.39-8.46Zm-13-.74A19.4,19.4,0,1,1,69,49.48,19.55,19.55,0,0,1,49.34,68.88Z"/><path class="cls-1" d="M40.91,34.44a17.58,17.58,0,0,0-3.83,2.68c.42.24.94.52,1.53.82a18.27,18.27,0,0,1,2.3-3.5Z"/><path class="cls-1" d="M37.69,40c-.94-.48-1.69-.93-2.19-1.24a16.5,16.5,0,0,0-3.91,9.56H36A26.07,26.07,0,0,1,37.69,40Z"/><path class="cls-1" d="M36,50.63H31.59A16.55,16.55,0,0,0,35.5,60.2,25.11,25.11,0,0,1,37.69,59,26.08,26.08,0,0,1,36,50.63Z"/><path class="cls-1" d="M38.61,61c-.59.3-1.11.58-1.53.82a17.34,17.34,0,0,0,3.83,2.68,18.27,18.27,0,0,1-2.3-3.5Z"/><path class="cls-1" d="M48.4,66.5V58.31a24.31,24.31,0,0,0-8,1.88C42.34,63.73,45.18,66.11,48.4,66.5Z"/><path class="cls-1" d="M39.47,58.13A25.63,25.63,0,0,1,48.4,56V50.64H37.91a23.59,23.59,0,0,0,1.56,7.5Z"/><path class="cls-1" d="M37.91,48.32H48.4V43a25.86,25.86,0,0,1-8.93-2.14,23.47,23.47,0,0,0-1.56,7.49Z"/><path class="cls-1" d="M40.42,38.77a24.57,24.57,0,0,0,8,1.88v-8.2C45.18,32.85,42.34,35.23,40.42,38.77Z"/><path class="cls-1" d="M62.67,48.32H67.1a16.57,16.57,0,0,0-3.92-9.56c-.49.31-1.24.76-2.19,1.24a26.35,26.35,0,0,1,1.68,8.32Z"/><path class="cls-1" d="M60.07,37.94c.6-.3,1.11-.58,1.53-.82a17.87,17.87,0,0,0-3.82-2.68,18.55,18.55,0,0,1,2.29,3.5Z"/><path class="cls-1" d="M50.29,32.45v8.2a24.19,24.19,0,0,0,8-1.88c-1.92-3.54-4.76-5.92-8-6.32Z"/><path class="cls-1" d="M59.22,40.83A26.15,26.15,0,0,1,50.29,43v5.35H60.77a23.2,23.2,0,0,0-1.55-7.49Z"/><path class="cls-1" d="M60.77,50.63H50.29V56a25.92,25.92,0,0,1,8.93,2.13,23.2,23.2,0,0,0,1.55-7.49Z"/><path class="cls-1" d="M50.29,58.31V66.5c3.21-.39,6.05-2.77,8-6.31a24.19,24.19,0,0,0-8-1.88Z"/><path class="cls-1" d="M57.78,64.51a17.48,17.48,0,0,0,3.82-2.67c-.42-.25-.93-.53-1.53-.82a18.47,18.47,0,0,1-2.29,3.49Z"/><path class="cls-1" d="M62.67,50.63A26.29,26.29,0,0,1,61,59c.95.49,1.69.93,2.19,1.24a16.57,16.57,0,0,0,3.92-9.56Z"/></g></svg>